<svg width="56" height="56" viewBox="0 0 56 56" fill="none" xmlns="http://www.w3.org/2000/svg">
<path d="M17.7576 20.2378C17.7576 16.6762 17.7576 13.1146 17.7576 9.54181C17.7576 9.03781 17.7576 8.53381 17.7576 8.04101C17.1976 8.60101 16.6376 9.16101 16.0776 9.72101C19.5608 9.72101 23.0552 9.72101 26.5384 9.72101C32.0936 9.72101 37.6488 9.72101 43.204 9.72101C44.4696 9.72101 45.7464 9.72101 47.012 9.72101C46.452 9.16101 45.892 8.60101 45.332 8.04101C45.332 9.36261 45.332 10.6954 45.332 12.017C45.332 15.1978 45.332 18.3786 45.332 21.5594C45.332 25.3898 45.332 29.2202 45.332 33.0506C45.332 36.377 45.332 39.7034 45.332 43.041C45.332 44.6538 45.2312 46.3002 45.332 47.9018C45.332 47.9242 45.332 47.9466 45.332 47.969C45.892 47.409 46.452 46.849 47.012 46.289C43.5288 46.289 40.0344 46.289 36.5512 46.289C30.996 46.289 25.4408 46.289 19.8856 46.289C18.62 46.289 17.3432 46.289 16.0776 46.289C16.6376 46.849 17.1976 47.409 17.7576 47.969C17.7576 44.7546 17.7576 41.5514 17.7576 38.337C17.7576 37.8666 17.7576 37.4074 17.7576 36.937C17.7576 36.0634 16.9848 35.2122 16.0776 35.257C15.1704 35.3018 14.3976 35.9962 14.3976 36.937C14.3976 40.1514 14.3976 43.3546 14.3976 46.569C14.3976 47.0394 14.3976 47.4986 14.3976 47.969C14.3976 48.8762 15.1704 49.649 16.0776 49.649C19.5608 49.649 23.0552 49.649 26.5384 49.649C32.0936 49.649 37.6488 49.649 43.204 49.649C44.4696 49.649 45.7464 49.649 47.012 49.649C47.9192 49.649 48.692 48.8762 48.692 47.969C48.692 46.6474 48.692 45.3146 48.692 43.993C48.692 40.8122 48.692 37.6314 48.692 34.4506C48.692 30.6202 48.692 26.7898 48.692 22.9594C48.692 19.633 48.692 16.3066 48.692 12.969C48.692 11.3562 48.748 9.72101 48.692 8.10821C48.692 8.08581 48.692 8.06341 48.692 8.04101C48.692 7.13381 47.9192 6.36101 47.012 6.36101C43.5288 6.36101 40.0344 6.36101 36.5512 6.36101C30.996 6.36101 25.4408 6.36101 19.8856 6.36101C18.62 6.36101 17.3432 6.36101 16.0776 6.36101C15.1704 6.36101 14.3976 7.13381 14.3976 8.04101C14.3976 11.6026 14.3976 15.1642 14.3976 18.737C14.3976 19.241 14.3976 19.745 14.3976 20.2378C14.3976 21.1114 15.1704 21.9626 16.0776 21.9178C16.9848 21.873 17.7576 21.1786 17.7576 20.2378Z" fill="#7E26C7"/>
<path d="M8.98553 29.68C11.8191 29.68 14.6527 29.68 17.4975 29.68C22.0447 29.68 26.5807 29.68 31.1279 29.68C32.1695 29.68 33.2111 29.68 34.2527 29.68C35.1263 29.68 35.9775 28.9072 35.9327 28C35.8879 27.0928 35.1935 26.32 34.2527 26.32C31.4191 26.32 28.5855 26.32 25.7407 26.32C21.1935 26.32 16.6575 26.32 12.1103 26.32C11.0687 26.32 10.0271 26.32 8.98553 26.32C8.11193 26.32 7.26073 27.0928 7.30553 28C7.33913 28.9072 8.04473 29.68 8.98553 29.68Z" fill="#7E26C7"/>
<path d="M25.6382 37.5322C28.5166 35.1018 31.4062 32.6602 34.2846 30.2298C34.699 29.8826 35.1134 29.5354 35.5278 29.1882C36.1774 28.6394 36.1774 27.3626 35.5278 26.8138C32.6494 24.3834 29.7598 21.9418 26.8814 19.5114C26.467 19.1642 26.0526 18.817 25.6382 18.4698C24.9438 17.8874 23.947 17.7866 23.2638 18.4698C22.659 19.0746 22.5694 20.2618 23.2638 20.8442C26.1422 23.2746 29.0318 25.7162 31.9102 28.1466C32.3246 28.4938 32.739 28.841 33.1534 29.1882C33.1534 28.393 33.1534 27.609 33.1534 26.8138C30.275 29.2442 27.3854 31.6858 24.507 34.1162C24.0926 34.4634 23.6782 34.8106 23.2638 35.1578C22.5694 35.7402 22.659 36.9274 23.2638 37.5322C23.947 38.2266 24.9438 38.1258 25.6382 37.5322Z" fill="#7E26C7"/>
</svg>
