<svg width="1420" height="1080" viewBox="0 0 1420 1080" fill="none" xmlns="http://www.w3.org/2000/svg">
<g clip-path="url(#clip0)">
<rect width="1420" height="1080" fill="url(#paint0_linear)"/>
<g opacity="0.25">
<path d="M2008.91 670.105L279.995 1133.37C245.527 1142.6 210.051 1122.28 200.878 1088.05L-50.2538 150.811C-59.4267 116.578 -38.8636 81.2402 -4.39559 72.0045L1724.52 -391.256C1758.98 -400.492 1794.46 -380.17 1803.63 -345.937L2054.77 591.299C2063.94 625.532 2043.38 660.87 2008.91 670.105ZM-2.24277 80.0389C-32.1385 88.0495 -50.0344 118.803 -42.0783 148.496L209.053 1085.73C217.009 1115.42 247.884 1133.11 277.78 1125.1L2006.69 661.838C2036.59 653.827 2054.48 623.074 2046.53 593.381L1795.4 -343.854C1787.44 -373.547 1756.57 -391.232 1726.67 -383.222L-2.24277 80.0389Z" fill="#00DBD9"/>
<path d="M686.26 -104.239C828.182 24.8302 929.523 191.263 979.332 377.152C1029.14 563.042 1024.59 757.847 966.219 940.585L273.848 1126.11C246.087 1133.54 217.337 1117.14 209.899 1089.38L-43.1633 144.942C-50.5703 117.298 -34.0212 88.6343 -6.14359 81.1645L686.228 -104.356L686.26 -104.239ZM688.513 -113.631L-8.3092 73.0824C-40.6378 81.7448 -59.9937 114.927 -51.3312 147.256L201.731 1091.7C210.362 1123.91 243.63 1143.12 276.076 1134.42L972.899 947.709C1031.15 768.267 1039.95 570.567 987.563 375.072C935.18 179.578 828.683 12.6439 688.513 -113.631Z" fill="#00DBD9"/>
<path d="M178.442 173.574C172.73 152.256 114.316 157.739 114.316 157.739C114.316 157.739 60.9856 182.198 66.6978 203.516C72.41 224.834 81.8482 278.799 147.145 280.26C203.049 246.198 184.155 194.892 178.442 173.574Z" fill="#00DBD9"/>
<path d="M81.807 203.731C83.5537 203.263 84.5902 201.468 84.1222 199.721C83.6542 197.975 81.8588 196.938 80.1122 197.406C78.3655 197.874 77.329 199.67 77.797 201.416C78.265 203.163 80.0604 204.199 81.807 203.731Z" fill="#007FEF"/>
<path d="M166.51 181.04C168.257 180.572 169.294 178.776 168.826 177.03C168.358 175.283 166.562 174.246 164.816 174.714C163.069 175.182 162.032 176.978 162.5 178.724C162.968 180.471 164.764 181.508 166.51 181.04Z" fill="#007FEF"/>
<g opacity="0.5">
<g opacity="0.5">
<g opacity="0.5">
<g opacity="0.5">
<path d="M1269.95 212.668C1271.56 212.234 1272.52 210.572 1272.09 208.955C1271.66 207.337 1269.99 206.378 1268.38 206.811C1266.76 207.244 1265.8 208.907 1266.23 210.524C1266.67 212.141 1268.33 213.101 1269.95 212.668Z" fill="#007FEF"/>
</g>
<g opacity="0.5">
<path d="M1219.7 226.126C1221.32 225.692 1222.28 224.03 1221.84 222.413C1221.41 220.795 1219.75 219.836 1218.13 220.269C1216.51 220.702 1215.55 222.365 1215.99 223.982C1216.42 225.599 1218.08 226.559 1219.7 226.126Z" fill="#007FEF"/>
</g>
<g opacity="0.5">
<path d="M1169.44 239.592C1171.06 239.159 1172.02 237.497 1171.58 235.879C1171.15 234.262 1169.49 233.302 1167.87 233.736C1166.25 234.169 1165.29 235.831 1165.73 237.449C1166.16 239.066 1167.82 240.026 1169.44 239.592Z" fill="#007FEF"/>
</g>
<g opacity="0.5">
<path d="M1119.2 253.055C1120.82 252.622 1121.78 250.96 1121.34 249.342C1120.91 247.725 1119.25 246.765 1117.63 247.199C1116.01 247.632 1115.05 249.294 1115.49 250.912C1115.92 252.529 1117.58 253.489 1119.2 253.055Z" fill="#007FEF"/>
</g>
<g opacity="0.5">
<path d="M1068.94 266.524C1070.56 266.09 1071.52 264.428 1071.08 262.811C1070.65 261.194 1068.99 260.234 1067.37 260.667C1065.75 261.1 1064.79 262.763 1065.23 264.38C1065.66 265.997 1067.32 266.957 1068.94 266.524Z" fill="#007FEF"/>
</g>
</g>
</g>
<g opacity="0.5">
<g opacity="0.5">
<g opacity="0.5">
<path d="M1300.63 327.096C1302.24 326.663 1303.2 325.001 1302.77 323.383C1302.34 321.766 1300.67 320.806 1299.06 321.24C1297.44 321.673 1296.48 323.335 1296.91 324.953C1297.35 326.57 1299.01 327.53 1300.63 327.096Z" fill="#007FEF"/>
</g>
<g opacity="0.5">
<path d="M1250.37 340.563C1251.98 340.13 1252.94 338.467 1252.51 336.85C1252.08 335.233 1250.41 334.273 1248.8 334.706C1247.18 335.14 1246.22 336.802 1246.65 338.419C1247.09 340.037 1248.75 340.996 1250.37 340.563Z" fill="#007FEF"/>
</g>
<g opacity="0.5">
<path d="M1200.12 354.024C1201.74 353.591 1202.7 351.928 1202.26 350.311C1201.83 348.694 1200.17 347.734 1198.55 348.167C1196.93 348.601 1195.97 350.263 1196.41 351.88C1196.84 353.498 1198.5 354.457 1200.12 354.024Z" fill="#007FEF"/>
</g>
<g opacity="0.5">
<path d="M1149.87 367.489C1151.49 367.056 1152.45 365.393 1152.02 363.776C1151.58 362.159 1149.92 361.199 1148.3 361.632C1146.69 362.066 1145.73 363.728 1146.16 365.345C1146.59 366.962 1148.26 367.922 1149.87 367.489Z" fill="#007FEF"/>
</g>
<g opacity="0.5">
<path d="M1099.63 380.954C1101.24 380.521 1102.2 378.859 1101.77 377.241C1101.34 375.624 1099.68 374.664 1098.06 375.098C1096.44 375.531 1095.48 377.193 1095.91 378.811C1096.35 380.428 1098.01 381.388 1099.63 380.954Z" fill="#007FEF"/>
</g>
</g>
<g opacity="0.5">
<g opacity="0.5">
<path d="M1290.91 290.903C1292.52 290.47 1293.48 288.807 1293.05 287.19C1292.62 285.573 1290.96 284.613 1289.34 285.046C1287.72 285.48 1286.76 287.142 1287.19 288.759C1287.63 290.377 1289.29 291.336 1290.91 290.903Z" fill="#007FEF"/>
</g>
<g opacity="0.5">
<path d="M1240.65 304.37C1242.27 303.937 1243.23 302.274 1242.8 300.657C1242.36 299.04 1240.7 298.08 1239.08 298.513C1237.47 298.947 1236.51 300.609 1236.94 302.226C1237.37 303.843 1239.04 304.803 1240.65 304.37Z" fill="#007FEF"/>
</g>
<g opacity="0.5">
<path d="M1190.41 317.834C1192.03 317.4 1192.98 315.738 1192.55 314.121C1192.12 312.503 1190.46 311.544 1188.84 311.977C1187.22 312.41 1186.26 314.073 1186.69 315.69C1187.13 317.307 1188.79 318.267 1190.41 317.834Z" fill="#007FEF"/>
</g>
<g opacity="0.5">
<path d="M1140.16 331.293C1141.78 330.859 1142.74 329.197 1142.31 327.58C1141.87 325.962 1140.21 325.003 1138.59 325.436C1136.98 325.869 1136.02 327.532 1136.45 329.149C1136.88 330.766 1138.54 331.726 1140.16 331.293Z" fill="#007FEF"/>
</g>
<g opacity="0.5">
<path d="M1089.9 344.764C1091.52 344.331 1092.48 342.669 1092.04 341.051C1091.61 339.434 1089.95 338.474 1088.33 338.908C1086.71 339.341 1085.75 341.003 1086.19 342.621C1086.62 344.238 1088.28 345.198 1089.9 344.764Z" fill="#007FEF"/>
</g>
</g>
<g opacity="0.5">
<g opacity="0.5">
<path d="M1281.2 254.592C1282.82 254.159 1283.78 252.497 1283.34 250.879C1282.91 249.262 1281.25 248.302 1279.63 248.736C1278.01 249.169 1277.05 250.831 1277.49 252.449C1277.92 254.066 1279.58 255.026 1281.2 254.592Z" fill="#007FEF"/>
</g>
<g opacity="0.5">
<path d="M1230.96 268.059C1232.58 267.626 1233.54 265.964 1233.1 264.346C1232.67 262.729 1231.01 261.769 1229.39 262.203C1227.77 262.636 1226.81 264.298 1227.25 265.916C1227.68 267.533 1229.34 268.493 1230.96 268.059Z" fill="#007FEF"/>
</g>
<g opacity="0.5">
<path d="M1180.7 281.52C1182.32 281.087 1183.28 279.424 1182.84 277.807C1182.41 276.19 1180.75 275.23 1179.13 275.663C1177.51 276.097 1176.55 277.759 1176.99 279.376C1177.42 280.994 1179.08 281.953 1180.7 281.52Z" fill="#007FEF"/>
</g>
<g opacity="0.5">
<path d="M1130.45 294.985C1132.07 294.552 1133.03 292.889 1132.6 291.272C1132.16 289.655 1130.5 288.695 1128.88 289.128C1127.27 289.562 1126.31 291.224 1126.74 292.841C1127.17 294.459 1128.84 295.418 1130.45 294.985Z" fill="#007FEF"/>
</g>
<g opacity="0.5">
<path d="M1080.2 308.45C1081.81 308.017 1082.77 306.355 1082.34 304.737C1081.91 303.12 1080.24 302.16 1078.63 302.594C1077.01 303.027 1076.05 304.689 1076.48 306.307C1076.92 307.924 1078.58 308.884 1080.2 308.45Z" fill="#007FEF"/>
</g>
</g>
</g>
</g>
<g opacity="0.5">
<g opacity="0.5">
<g opacity="0.5">
<g opacity="0.5">
<path d="M1370.92 185.609C1372.54 185.176 1373.5 183.513 1373.07 181.896C1372.63 180.279 1370.97 179.319 1369.35 179.752C1367.74 180.186 1366.78 181.848 1367.21 183.465C1367.64 185.083 1369.31 186.042 1370.92 185.609Z" fill="#007FEF"/>
</g>
<g opacity="0.5">
<path d="M1320.67 199.076C1322.29 198.642 1323.25 196.98 1322.82 195.363C1322.38 193.745 1320.72 192.786 1319.1 193.219C1317.49 193.652 1316.53 195.315 1316.96 196.932C1317.39 198.549 1319.06 199.509 1320.67 199.076Z" fill="#007FEF"/>
</g>
<g opacity="0.5">
<path d="M1270.42 212.537C1272.04 212.103 1273 210.441 1272.56 208.824C1272.13 207.206 1270.47 206.247 1268.85 206.68C1267.23 207.113 1266.27 208.776 1266.71 210.393C1267.14 212.01 1268.8 212.97 1270.42 212.537Z" fill="#007FEF"/>
</g>
<g opacity="0.5">
<path d="M1220.17 226.002C1221.79 225.569 1222.75 223.907 1222.32 222.29C1221.88 220.672 1220.22 219.712 1218.6 220.146C1216.99 220.579 1216.03 222.242 1216.46 223.859C1216.89 225.476 1218.56 226.436 1220.17 226.002Z" fill="#007FEF"/>
</g>
<g opacity="0.5">
<path d="M1169.92 239.469C1171.54 239.036 1172.5 237.374 1172.07 235.756C1171.63 234.139 1169.97 233.179 1168.35 233.613C1166.74 234.046 1165.78 235.708 1166.21 237.326C1166.64 238.943 1168.31 239.903 1169.92 239.469Z" fill="#007FEF"/>
</g>
</g>
</g>
<g opacity="0.5">
<g opacity="0.5">
<g opacity="0.5">
<path d="M1401.58 300.043C1403.2 299.609 1404.16 297.947 1403.72 296.33C1403.29 294.712 1401.63 293.753 1400.01 294.186C1398.39 294.619 1397.43 296.282 1397.87 297.899C1398.3 299.516 1399.96 300.476 1401.58 300.043Z" fill="#007FEF"/>
</g>
<g opacity="0.5">
<path d="M1351.33 313.508C1352.95 313.075 1353.91 311.413 1353.47 309.795C1353.04 308.178 1351.38 307.218 1349.76 307.652C1348.14 308.085 1347.18 309.748 1347.62 311.365C1348.05 312.982 1349.71 313.942 1351.33 313.508Z" fill="#007FEF"/>
</g>
<g opacity="0.5">
<path d="M1301.09 326.971C1302.71 326.538 1303.67 324.876 1303.23 323.258C1302.8 321.641 1301.14 320.681 1299.52 321.115C1297.9 321.548 1296.94 323.21 1297.38 324.828C1297.81 326.445 1299.47 327.405 1301.09 326.971Z" fill="#007FEF"/>
</g>
<g opacity="0.5">
<path d="M1250.83 340.437C1252.44 340.003 1253.4 338.341 1252.97 336.724C1252.54 335.107 1250.87 334.147 1249.26 334.58C1247.64 335.013 1246.68 336.676 1247.11 338.293C1247.55 339.91 1249.21 340.87 1250.83 340.437Z" fill="#007FEF"/>
</g>
<g opacity="0.5">
<path d="M1200.58 353.901C1202.2 353.468 1203.16 351.805 1202.73 350.188C1202.29 348.571 1200.63 347.611 1199.02 348.044C1197.4 348.478 1196.44 350.14 1196.87 351.757C1197.31 353.375 1198.97 354.334 1200.58 353.901Z" fill="#007FEF"/>
</g>
</g>
<g opacity="0.5">
<g opacity="0.5">
<path d="M1391.88 263.849C1393.5 263.416 1394.46 261.754 1394.03 260.136C1393.6 258.519 1391.93 257.559 1390.32 257.993C1388.7 258.426 1387.74 260.088 1388.17 261.706C1388.61 263.323 1390.27 264.283 1391.88 263.849Z" fill="#007FEF"/>
</g>
<g opacity="0.5">
<path d="M1341.64 277.311C1343.26 276.877 1344.22 275.215 1343.79 273.598C1343.35 271.98 1341.69 271.021 1340.07 271.454C1338.46 271.887 1337.5 273.55 1337.93 275.167C1338.36 276.784 1340.03 277.744 1341.64 277.311Z" fill="#007FEF"/>
</g>
<g opacity="0.5">
<path d="M1291.38 290.776C1293 290.342 1293.96 288.68 1293.53 287.063C1293.09 285.445 1291.43 284.486 1289.81 284.919C1288.2 285.352 1287.24 287.015 1287.67 288.632C1288.1 290.249 1289.77 291.209 1291.38 290.776Z" fill="#007FEF"/>
</g>
<g opacity="0.5">
<path d="M1241.13 304.241C1242.75 303.807 1243.71 302.145 1243.28 300.528C1242.84 298.91 1241.18 297.951 1239.56 298.384C1237.95 298.817 1236.99 300.48 1237.42 302.097C1237.85 303.714 1239.52 304.674 1241.13 304.241Z" fill="#007FEF"/>
</g>
<g opacity="0.5">
<path d="M1190.89 317.702C1192.51 317.268 1193.47 315.606 1193.03 313.989C1192.6 312.372 1190.94 311.412 1189.32 311.845C1187.7 312.279 1186.74 313.941 1187.18 315.558C1187.61 317.175 1189.27 318.135 1190.89 317.702Z" fill="#007FEF"/>
</g>
</g>
<g opacity="0.5">
<g opacity="0.5">
<path d="M1382.15 227.542C1383.77 227.108 1384.73 225.446 1384.29 223.829C1383.86 222.211 1382.2 221.252 1380.58 221.685C1378.96 222.118 1378 223.781 1378.44 225.398C1378.87 227.015 1380.53 227.975 1382.15 227.542Z" fill="#007FEF"/>
</g>
<g opacity="0.5">
<path d="M1331.9 241.004C1333.51 240.57 1334.47 238.908 1334.04 237.291C1333.61 235.673 1331.94 234.714 1330.33 235.147C1328.71 235.58 1327.75 237.243 1328.18 238.86C1328.62 240.477 1330.28 241.437 1331.9 241.004Z" fill="#007FEF"/>
</g>
<g opacity="0.5">
<path d="M1281.66 254.468C1283.28 254.035 1284.24 252.373 1283.8 250.755C1283.37 249.138 1281.71 248.178 1280.09 248.612C1278.47 249.045 1277.51 250.707 1277.95 252.325C1278.38 253.942 1280.04 254.902 1281.66 254.468Z" fill="#007FEF"/>
</g>
<g opacity="0.5">
<path d="M1231.4 267.933C1233.02 267.5 1233.98 265.838 1233.55 264.22C1233.11 262.603 1231.45 261.643 1229.84 262.077C1228.22 262.51 1227.26 264.172 1227.69 265.79C1228.12 267.407 1229.79 268.367 1231.4 267.933Z" fill="#007FEF"/>
</g>
<g opacity="0.5">
<path d="M1181.15 281.401C1182.77 280.968 1183.73 279.305 1183.29 277.688C1182.86 276.071 1181.2 275.111 1179.58 275.544C1177.96 275.978 1177 277.64 1177.44 279.257C1177.87 280.875 1179.53 281.834 1181.15 281.401Z" fill="#007FEF"/>
</g>
</g>
</g>
</g>
<g opacity="0.5">
<g opacity="0.5">
<g opacity="0.5">
<g opacity="0.5">
<path opacity="0.5" d="M741.247 446.726C742.541 446.38 743.309 445.05 742.962 443.756C742.616 442.462 741.286 441.694 739.992 442.041C738.698 442.388 737.93 443.717 738.277 445.011C738.624 446.305 739.953 447.073 741.247 446.726Z" fill="#00DBD9"/>
</g>
<g opacity="0.5">
<path opacity="0.5" d="M781.297 435.995C782.591 435.648 783.359 434.318 783.012 433.024C782.666 431.731 781.336 430.963 780.042 431.309C778.748 431.656 777.98 432.986 778.327 434.28C778.674 435.574 780.003 436.341 781.297 435.995Z" fill="#00DBD9"/>
</g>
<g opacity="0.5">
<path opacity="0.5" d="M821.246 425.291C822.54 424.944 823.308 423.614 822.961 422.32C822.614 421.027 821.284 420.259 819.991 420.605C818.697 420.952 817.929 422.282 818.276 423.576C818.622 424.87 819.952 425.637 821.246 425.291Z" fill="#00DBD9"/>
</g>
<g opacity="0.5">
<path opacity="0.5" d="M861.3 414.558C862.594 414.211 863.362 412.881 863.015 411.587C862.669 410.294 861.339 409.526 860.045 409.872C858.751 410.219 857.983 411.549 858.33 412.843C858.677 414.137 860.007 414.904 861.3 414.558Z" fill="#00DBD9"/>
</g>
<g opacity="0.5">
<path opacity="0.5" d="M901.364 403.825C902.658 403.478 903.426 402.148 903.079 400.854C902.733 399.56 901.403 398.793 900.109 399.139C898.815 399.486 898.047 400.816 898.394 402.11C898.741 403.404 900.071 404.171 901.364 403.825Z" fill="#00DBD9"/>
</g>
<g opacity="0.5">
<path opacity="0.5" d="M941.301 393.119C942.595 392.772 943.363 391.442 943.016 390.149C942.669 388.855 941.34 388.087 940.046 388.434C938.752 388.78 937.984 390.11 938.331 391.404C938.677 392.698 940.007 393.466 941.301 393.119Z" fill="#00DBD9"/>
</g>
<g opacity="0.5">
<path opacity="0.5" d="M981.368 382.388C982.662 382.041 983.429 380.711 983.083 379.417C982.736 378.124 981.406 377.356 980.112 377.702C978.818 378.049 978.051 379.379 978.397 380.673C978.744 381.967 980.074 382.734 981.368 382.388Z" fill="#00DBD9"/>
</g>
<g opacity="0.5">
<path opacity="0.5" d="M1021.43 371.655C1022.72 371.308 1023.49 369.978 1023.14 368.685C1022.79 367.391 1021.46 366.623 1020.17 366.97C1018.88 367.316 1018.11 368.646 1018.46 369.94C1018.8 371.234 1020.13 372.002 1021.43 371.655Z" fill="#00DBD9"/>
</g>
<g opacity="0.5">
<path opacity="0.5" d="M1061.36 360.951C1062.66 360.604 1063.42 359.274 1063.08 357.98C1062.73 356.687 1061.4 355.919 1060.11 356.265C1058.81 356.612 1058.05 357.942 1058.39 359.236C1058.74 360.53 1060.07 361.297 1061.36 360.951Z" fill="#00DBD9"/>
</g>
<g opacity="0.5">
<path opacity="0.5" d="M1101.43 350.214C1102.73 349.867 1103.5 348.537 1103.15 347.243C1102.8 345.95 1101.47 345.182 1100.18 345.528C1098.89 345.875 1098.12 347.205 1098.46 348.499C1098.81 349.793 1100.14 350.56 1101.43 350.214Z" fill="#00DBD9"/>
</g>
<g opacity="0.5">
<path opacity="0.5" d="M1141.35 339.52C1142.64 339.174 1143.41 337.844 1143.06 336.55C1142.72 335.256 1141.39 334.488 1140.09 334.835C1138.8 335.182 1138.03 336.512 1138.38 337.805C1138.72 339.099 1140.05 339.867 1141.35 339.52Z" fill="#00DBD9"/>
</g>
<g opacity="0.5">
<path opacity="0.5" d="M1181.42 328.781C1182.72 328.434 1183.48 327.104 1183.14 325.81C1182.79 324.517 1181.46 323.749 1180.17 324.095C1178.87 324.442 1178.11 325.772 1178.45 327.066C1178.8 328.36 1180.13 329.127 1181.42 328.781Z" fill="#00DBD9"/>
</g>
</g>
<g opacity="0.5">
<g opacity="0.5">
<path opacity="0.5" d="M748.977 475.54C750.271 475.193 751.038 473.863 750.692 472.569C750.345 471.276 749.015 470.508 747.721 470.854C746.428 471.201 745.66 472.531 746.006 473.825C746.353 475.119 747.683 475.886 748.977 475.54Z" fill="#00DBD9"/>
</g>
<g opacity="0.5">
<path opacity="0.5" d="M789.035 464.808C790.329 464.461 791.096 463.131 790.75 461.838C790.403 460.544 789.073 459.776 787.779 460.123C786.486 460.469 785.718 461.799 786.064 463.093C786.411 464.387 787.741 465.155 789.035 464.808Z" fill="#00DBD9"/>
</g>
<g opacity="0.5">
<path opacity="0.5" d="M828.972 454.106C830.266 453.759 831.034 452.429 830.687 451.136C830.341 449.842 829.011 449.074 827.717 449.421C826.423 449.767 825.655 451.097 826.002 452.391C826.349 453.685 827.678 454.453 828.972 454.106Z" fill="#00DBD9"/>
</g>
<g opacity="0.5">
<path opacity="0.5" d="M869.027 443.372C870.321 443.026 871.089 441.696 870.742 440.402C870.395 439.108 869.065 438.34 867.772 438.687C866.478 439.034 865.71 440.364 866.057 441.658C866.403 442.951 867.733 443.719 869.027 443.372Z" fill="#00DBD9"/>
</g>
<g opacity="0.5">
<path opacity="0.5" d="M909.089 432.639C910.383 432.292 911.151 430.963 910.804 429.669C910.458 428.375 909.128 427.607 907.834 427.954C906.54 428.3 905.772 429.63 906.119 430.924C906.466 432.218 907.796 432.986 909.089 432.639Z" fill="#00DBD9"/>
</g>
<g opacity="0.5">
<path opacity="0.5" d="M949.031 421.933C950.325 421.586 951.093 420.256 950.746 418.963C950.399 417.669 949.07 416.901 947.776 417.248C946.482 417.594 945.714 418.924 946.061 420.218C946.407 421.512 947.737 422.28 949.031 421.933Z" fill="#00DBD9"/>
</g>
<g opacity="0.5">
<path opacity="0.5" d="M989.097 411.204C990.391 410.857 991.159 409.527 990.812 408.234C990.465 406.94 989.135 406.172 987.841 406.519C986.548 406.865 985.78 408.195 986.127 409.489C986.473 410.783 987.803 411.551 989.097 411.204Z" fill="#00DBD9"/>
</g>
<g opacity="0.5">
<path opacity="0.5" d="M1029.15 400.469C1030.45 400.122 1031.21 398.792 1030.87 397.498C1030.52 396.204 1029.19 395.437 1027.9 395.783C1026.6 396.13 1025.83 397.46 1026.18 398.754C1026.53 400.048 1027.86 400.815 1029.15 400.469Z" fill="#00DBD9"/>
</g>
<g opacity="0.5">
<path opacity="0.5" d="M1069.09 389.766C1070.39 389.419 1071.15 388.089 1070.81 386.796C1070.46 385.502 1069.13 384.734 1067.84 385.081C1066.54 385.427 1065.78 386.757 1066.12 388.051C1066.47 389.345 1067.8 390.113 1069.09 389.766Z" fill="#00DBD9"/>
</g>
<g opacity="0.5">
<path opacity="0.5" d="M1109.16 379.028C1110.45 378.681 1111.22 377.351 1110.87 376.057C1110.53 374.764 1109.2 373.996 1107.9 374.342C1106.61 374.689 1105.84 376.019 1106.19 377.313C1106.54 378.607 1107.87 379.374 1109.16 379.028Z" fill="#00DBD9"/>
</g>
<g opacity="0.5">
<path opacity="0.5" d="M1149.09 368.33C1150.39 367.983 1151.16 366.653 1150.81 365.359C1150.46 364.066 1149.13 363.298 1147.84 363.644C1146.54 363.991 1145.78 365.321 1146.12 366.615C1146.47 367.909 1147.8 368.676 1149.09 368.33Z" fill="#00DBD9"/>
</g>
<g opacity="0.5">
<path opacity="0.5" d="M1189.16 357.592C1190.45 357.246 1191.22 355.916 1190.87 354.622C1190.52 353.328 1189.19 352.56 1187.9 352.907C1186.61 353.254 1185.84 354.584 1186.19 355.877C1186.53 357.171 1187.86 357.939 1189.16 357.592Z" fill="#00DBD9"/>
</g>
</g>
<g opacity="0.5">
<g opacity="0.5">
<path opacity="0.5" d="M756.681 504.357C757.975 504.01 758.743 502.68 758.396 501.386C758.049 500.093 756.719 499.325 755.426 499.672C754.132 500.018 753.364 501.348 753.711 502.642C754.057 503.936 755.387 504.704 756.681 504.357Z" fill="#00DBD9"/>
</g>
<g opacity="0.5">
<path opacity="0.5" d="M796.743 493.621C798.037 493.275 798.805 491.945 798.458 490.651C798.111 489.357 796.781 488.589 795.488 488.936C794.194 489.283 793.426 490.613 793.773 491.906C794.119 493.2 795.449 493.968 796.743 493.621Z" fill="#00DBD9"/>
</g>
<g opacity="0.5">
<path opacity="0.5" d="M836.691 482.916C837.985 482.569 838.753 481.239 838.406 479.945C838.06 478.651 836.73 477.884 835.436 478.23C834.142 478.577 833.374 479.907 833.721 481.201C834.068 482.494 835.398 483.262 836.691 482.916Z" fill="#00DBD9"/>
</g>
<g opacity="0.5">
<path opacity="0.5" d="M876.747 472.185C878.041 471.838 878.808 470.508 878.462 469.214C878.115 467.92 876.785 467.153 875.491 467.499C874.197 467.846 873.43 469.176 873.776 470.47C874.123 471.763 875.453 472.531 876.747 472.185Z" fill="#00DBD9"/>
</g>
<g opacity="0.5">
<path opacity="0.5" d="M916.81 461.451C918.104 461.105 918.872 459.775 918.525 458.481C918.179 457.187 916.849 456.419 915.555 456.766C914.261 457.113 913.493 458.443 913.84 459.736C914.187 461.03 915.516 461.798 916.81 461.451Z" fill="#00DBD9"/>
</g>
<g opacity="0.5">
<path opacity="0.5" d="M956.74 450.749C958.034 450.403 958.802 449.073 958.455 447.779C958.108 446.485 956.778 445.717 955.484 446.064C954.191 446.411 953.423 447.741 953.77 449.034C954.116 450.328 955.446 451.096 956.74 450.749Z" fill="#00DBD9"/>
</g>
<g opacity="0.5">
<path opacity="0.5" d="M996.814 440.012C998.107 439.666 998.875 438.336 998.528 437.042C998.182 435.748 996.852 434.98 995.558 435.327C994.264 435.674 993.496 437.004 993.843 438.297C994.19 439.591 995.52 440.359 996.814 440.012Z" fill="#00DBD9"/>
</g>
<g opacity="0.5">
<path opacity="0.5" d="M1036.86 429.283C1038.16 428.936 1038.92 427.606 1038.58 426.312C1038.23 425.019 1036.9 424.251 1035.61 424.597C1034.31 424.944 1033.55 426.274 1033.89 427.568C1034.24 428.862 1035.57 429.629 1036.86 429.283Z" fill="#00DBD9"/>
</g>
<g opacity="0.5">
<path opacity="0.5" d="M1076.8 418.579C1078.09 418.233 1078.86 416.903 1078.52 415.609C1078.17 414.315 1076.84 413.547 1075.55 413.894C1074.25 414.241 1073.48 415.571 1073.83 416.864C1074.18 418.158 1075.51 418.926 1076.8 418.579Z" fill="#00DBD9"/>
</g>
<g opacity="0.5">
<path opacity="0.5" d="M1116.86 407.845C1118.16 407.498 1118.93 406.168 1118.58 404.874C1118.23 403.581 1116.9 402.813 1115.61 403.159C1114.31 403.506 1113.55 404.836 1113.89 406.13C1114.24 407.424 1115.57 408.191 1116.86 407.845Z" fill="#00DBD9"/>
</g>
<g opacity="0.5">
<path opacity="0.5" d="M1156.81 397.143C1158.1 396.796 1158.87 395.466 1158.52 394.172C1158.18 392.878 1156.85 392.111 1155.55 392.457C1154.26 392.804 1153.49 394.134 1153.84 395.428C1154.19 396.721 1155.52 397.489 1156.81 397.143Z" fill="#00DBD9"/>
</g>
<g opacity="0.5">
<path opacity="0.5" d="M1196.87 386.409C1198.16 386.063 1198.93 384.733 1198.58 383.439C1198.24 382.145 1196.91 381.377 1195.61 381.724C1194.32 382.071 1193.55 383.401 1193.9 384.694C1194.24 385.988 1195.57 386.756 1196.87 386.409Z" fill="#00DBD9"/>
</g>
</g>
<g opacity="0.5">
<g opacity="0.5">
<path opacity="0.5" d="M764.438 533.286C765.732 532.939 766.5 531.61 766.153 530.316C765.806 529.022 764.476 528.254 763.182 528.601C761.889 528.947 761.121 530.277 761.468 531.571C761.814 532.865 763.144 533.633 764.438 533.286Z" fill="#00DBD9"/>
</g>
<g opacity="0.5">
<path opacity="0.5" d="M804.497 522.551C805.79 522.204 806.558 520.874 806.211 519.58C805.865 518.287 804.535 517.519 803.241 517.865C801.947 518.212 801.179 519.542 801.526 520.836C801.873 522.13 803.203 522.897 804.497 522.551Z" fill="#00DBD9"/>
</g>
<g opacity="0.5">
<path opacity="0.5" d="M844.426 511.851C845.72 511.504 846.488 510.174 846.141 508.88C845.794 507.586 844.465 506.819 843.171 507.165C841.877 507.512 841.109 508.842 841.456 510.136C841.803 511.429 843.132 512.197 844.426 511.851Z" fill="#00DBD9"/>
</g>
<g opacity="0.5">
<path opacity="0.5" d="M884.497 501.112C885.79 500.766 886.558 499.436 886.211 498.142C885.865 496.848 884.535 496.08 883.241 496.427C881.947 496.774 881.179 498.104 881.526 499.397C881.873 500.691 883.203 501.459 884.497 501.112Z" fill="#00DBD9"/>
</g>
<g opacity="0.5">
<path opacity="0.5" d="M924.559 490.382C925.853 490.035 926.621 488.705 926.274 487.411C925.927 486.118 924.597 485.35 923.304 485.696C922.01 486.043 921.242 487.373 921.589 488.667C921.935 489.961 923.265 490.728 924.559 490.382Z" fill="#00DBD9"/>
</g>
<g opacity="0.5">
<path opacity="0.5" d="M964.493 479.681C965.786 479.334 966.554 478.004 966.208 476.71C965.861 475.416 964.531 474.649 963.237 474.995C961.943 475.342 961.176 476.672 961.522 477.966C961.869 479.259 963.199 480.027 964.493 479.681Z" fill="#00DBD9"/>
</g>
<g opacity="0.5">
<path opacity="0.5" d="M1004.56 468.944C1005.85 468.598 1006.62 467.268 1006.27 465.974C1005.93 464.68 1004.6 463.912 1003.3 464.259C1002.01 464.606 1001.24 465.936 1001.59 467.229C1001.94 468.523 1003.27 469.291 1004.56 468.944Z" fill="#00DBD9"/>
</g>
<g opacity="0.5">
<path opacity="0.5" d="M1044.61 458.213C1045.91 457.866 1046.68 456.536 1046.33 455.242C1045.98 453.949 1044.65 453.181 1043.36 453.528C1042.06 453.874 1041.3 455.204 1041.64 456.498C1041.99 457.792 1043.32 458.56 1044.61 458.213Z" fill="#00DBD9"/>
</g>
<g opacity="0.5">
<path opacity="0.5" d="M1084.56 447.507C1085.86 447.16 1086.62 445.83 1086.28 444.536C1085.93 443.243 1084.6 442.475 1083.31 442.821C1082.01 443.168 1081.25 444.498 1081.59 445.792C1081.94 447.086 1083.27 447.853 1084.56 447.507Z" fill="#00DBD9"/>
</g>
<g opacity="0.5">
<path opacity="0.5" d="M1124.62 436.773C1125.92 436.427 1126.68 435.097 1126.34 433.803C1125.99 432.509 1124.66 431.741 1123.37 432.088C1122.07 432.435 1121.3 433.765 1121.65 435.058C1122 436.352 1123.33 437.12 1124.62 436.773Z" fill="#00DBD9"/>
</g>
<g opacity="0.5">
<path opacity="0.5" d="M1164.57 426.072C1165.86 425.726 1166.63 424.396 1166.28 423.102C1165.94 421.808 1164.61 421.04 1163.31 421.387C1162.02 421.734 1161.25 423.063 1161.6 424.357C1161.94 425.651 1163.27 426.419 1164.57 426.072Z" fill="#00DBD9"/>
</g>
<g opacity="0.5">
<path opacity="0.5" d="M1204.61 415.34C1205.91 414.993 1206.68 413.663 1206.33 412.369C1205.98 411.076 1204.65 410.308 1203.36 410.654C1202.06 411.001 1201.3 412.331 1201.64 413.625C1201.99 414.919 1203.32 415.686 1204.61 415.34Z" fill="#00DBD9"/>
</g>
</g>
<g opacity="0.5">
<g opacity="0.5">
<path opacity="0.5" d="M772.157 562.1C773.45 561.753 774.218 560.423 773.872 559.129C773.525 557.835 772.195 557.068 770.901 557.414C769.607 557.761 768.84 559.091 769.186 560.385C769.533 561.678 770.863 562.446 772.157 562.1Z" fill="#00DBD9"/>
</g>
<g opacity="0.5">
<path opacity="0.5" d="M812.204 551.367C813.497 551.02 814.265 549.691 813.918 548.397C813.572 547.103 812.242 546.335 810.948 546.682C809.654 547.029 808.887 548.358 809.233 549.652C809.58 550.946 810.91 551.714 812.204 551.367Z" fill="#00DBD9"/>
</g>
<g opacity="0.5">
<path opacity="0.5" d="M852.153 540.663C853.447 540.316 854.214 538.986 853.868 537.693C853.521 536.399 852.191 535.631 850.897 535.978C849.604 536.324 848.836 537.654 849.182 538.948C849.529 540.242 850.859 541.01 852.153 540.663Z" fill="#00DBD9"/>
</g>
<g opacity="0.5">
<path opacity="0.5" d="M892.207 529.932C893.501 529.585 894.269 528.255 893.922 526.961C893.576 525.667 892.246 524.9 890.952 525.246C889.658 525.593 888.89 526.923 889.237 528.217C889.584 529.51 890.914 530.278 892.207 529.932Z" fill="#00DBD9"/>
</g>
<g opacity="0.5">
<path opacity="0.5" d="M932.274 519.195C933.568 518.849 934.335 517.519 933.989 516.225C933.642 514.931 932.312 514.163 931.018 514.51C929.725 514.857 928.957 516.187 929.303 517.48C929.65 518.774 930.98 519.542 932.274 519.195Z" fill="#00DBD9"/>
</g>
<g opacity="0.5">
<path opacity="0.5" d="M972.211 508.49C973.505 508.144 974.273 506.814 973.926 505.52C973.58 504.226 972.25 503.458 970.956 503.805C969.662 504.152 968.894 505.481 969.241 506.775C969.588 508.069 970.918 508.837 972.211 508.49Z" fill="#00DBD9"/>
</g>
<g opacity="0.5">
<path opacity="0.5" d="M1012.27 497.76C1013.57 497.413 1014.34 496.083 1013.99 494.789C1013.64 493.496 1012.31 492.728 1011.02 493.074C1009.72 493.421 1008.96 494.751 1009.3 496.045C1009.65 497.339 1010.98 498.106 1012.27 497.76Z" fill="#00DBD9"/>
</g>
<g opacity="0.5">
<path opacity="0.5" d="M1052.33 487.026C1053.63 486.68 1054.39 485.35 1054.05 484.056C1053.7 482.762 1052.37 481.994 1051.08 482.341C1049.78 482.688 1049.02 484.018 1049.36 485.311C1049.71 486.605 1051.04 487.373 1052.33 487.026Z" fill="#00DBD9"/>
</g>
<g opacity="0.5">
<path opacity="0.5" d="M1092.27 476.326C1093.56 475.979 1094.33 474.65 1093.98 473.356C1093.64 472.062 1092.31 471.294 1091.01 471.641C1089.72 471.987 1088.95 473.317 1089.3 474.611C1089.65 475.905 1090.98 476.673 1092.27 476.326Z" fill="#00DBD9"/>
</g>
<g opacity="0.5">
<path opacity="0.5" d="M1132.34 465.59C1133.64 465.243 1134.41 463.913 1134.06 462.619C1133.71 461.326 1132.38 460.558 1131.09 460.904C1129.79 461.251 1129.03 462.581 1129.37 463.875C1129.72 465.169 1131.05 465.936 1132.34 465.59Z" fill="#00DBD9"/>
</g>
<g opacity="0.5">
<path opacity="0.5" d="M1172.27 454.888C1173.56 454.541 1174.33 453.211 1173.98 451.917C1173.64 450.623 1172.31 449.856 1171.01 450.202C1169.72 450.549 1168.95 451.879 1169.3 453.173C1169.65 454.467 1170.98 455.234 1172.27 454.888Z" fill="#00DBD9"/>
</g>
<g opacity="0.5">
<path opacity="0.5" d="M1212.33 444.154C1213.62 443.808 1214.39 442.478 1214.04 441.184C1213.7 439.89 1212.37 439.122 1211.07 439.469C1209.78 439.816 1209.01 441.146 1209.36 442.439C1209.7 443.733 1211.03 444.501 1212.33 444.154Z" fill="#00DBD9"/>
</g>
</g>
</g>
<g opacity="0.5">
<g opacity="0.5">
<g opacity="0.5">
<path opacity="0.5" d="M709.055 326.664C710.349 326.317 711.117 324.987 710.77 323.694C710.423 322.4 709.093 321.632 707.8 321.979C706.506 322.325 705.738 323.655 706.085 324.949C706.431 326.243 707.761 327.011 709.055 326.664Z" fill="#00DBD9"/>
</g>
<g opacity="0.5">
<path opacity="0.5" d="M749.121 315.935C750.415 315.589 751.182 314.259 750.836 312.965C750.489 311.671 749.159 310.903 747.865 311.25C746.572 311.597 745.804 312.926 746.15 314.22C746.497 315.514 747.827 316.282 749.121 315.935Z" fill="#00DBD9"/>
</g>
<g opacity="0.5">
<path opacity="0.5" d="M789.071 305.229C790.365 304.883 791.132 303.553 790.786 302.259C790.439 300.965 789.109 300.197 787.815 300.544C786.521 300.891 785.754 302.221 786.1 303.514C786.447 304.808 787.777 305.576 789.071 305.229Z" fill="#00DBD9"/>
</g>
<g opacity="0.5">
<path opacity="0.5" d="M829.125 294.494C830.419 294.147 831.187 292.818 830.84 291.524C830.494 290.23 829.164 289.462 827.87 289.809C826.576 290.155 825.808 291.485 826.155 292.779C826.502 294.073 827.832 294.841 829.125 294.494Z" fill="#00DBD9"/>
</g>
<g opacity="0.5">
<path opacity="0.5" d="M869.18 283.763C870.474 283.417 871.242 282.087 870.895 280.793C870.548 279.499 869.219 278.731 867.925 279.078C866.631 279.425 865.863 280.755 866.21 282.048C866.557 283.342 867.886 284.11 869.18 283.763Z" fill="#00DBD9"/>
</g>
<g opacity="0.5">
<path opacity="0.5" d="M909.126 273.055C910.42 272.709 911.187 271.379 910.841 270.085C910.494 268.791 909.164 268.023 907.87 268.37C906.577 268.717 905.809 270.047 906.155 271.341C906.502 272.634 907.832 273.402 909.126 273.055Z" fill="#00DBD9"/>
</g>
<g opacity="0.5">
<path opacity="0.5" d="M949.183 262.322C950.477 261.976 951.245 260.646 950.898 259.352C950.552 258.058 949.222 257.29 947.928 257.637C946.634 257.984 945.866 259.314 946.213 260.607C946.56 261.901 947.89 262.669 949.183 262.322Z" fill="#00DBD9"/>
</g>
<g opacity="0.5">
<path opacity="0.5" d="M989.25 251.591C990.544 251.244 991.312 249.914 990.965 248.62C990.619 247.327 989.289 246.559 987.995 246.905C986.701 247.252 985.933 248.582 986.28 249.876C986.627 251.17 987.957 251.937 989.25 251.591Z" fill="#00DBD9"/>
</g>
<g opacity="0.5">
<path opacity="0.5" d="M1029.18 240.89C1030.47 240.543 1031.24 239.213 1030.9 237.919C1030.55 236.625 1029.22 235.858 1027.92 236.204C1026.63 236.551 1025.86 237.881 1026.21 239.175C1026.56 240.468 1027.89 241.236 1029.18 240.89Z" fill="#00DBD9"/>
</g>
<g opacity="0.5">
<path opacity="0.5" d="M1069.24 230.156C1070.54 229.81 1071.3 228.48 1070.96 227.186C1070.61 225.892 1069.28 225.124 1067.99 225.471C1066.69 225.818 1065.93 227.148 1066.27 228.441C1066.62 229.735 1067.95 230.503 1069.24 230.156Z" fill="#00DBD9"/>
</g>
<g opacity="0.5">
<path opacity="0.5" d="M1109.18 219.453C1110.47 219.106 1111.24 217.776 1110.9 216.482C1110.55 215.189 1109.22 214.421 1107.93 214.767C1106.63 215.114 1105.86 216.444 1106.21 217.738C1106.56 219.032 1107.89 219.799 1109.18 219.453Z" fill="#00DBD9"/>
</g>
<g opacity="0.5">
<path opacity="0.5" d="M1149.25 208.717C1150.54 208.371 1151.31 207.041 1150.96 205.747C1150.61 204.453 1149.28 203.685 1147.99 204.032C1146.7 204.379 1145.93 205.709 1146.28 207.002C1146.62 208.296 1147.95 209.064 1149.25 208.717Z" fill="#00DBD9"/>
</g>
</g>
<g opacity="0.5">
<g opacity="0.5">
<path opacity="0.5" d="M716.766 355.481C718.06 355.135 718.828 353.805 718.481 352.511C718.134 351.217 716.804 350.449 715.511 350.796C714.217 351.143 713.449 352.473 713.796 353.766C714.142 355.06 715.472 355.828 716.766 355.481Z" fill="#00DBD9"/>
</g>
<g opacity="0.5">
<path opacity="0.5" d="M756.825 344.746C758.118 344.399 758.886 343.069 758.54 341.776C758.193 340.482 756.863 339.714 755.569 340.061C754.275 340.407 753.508 341.737 753.854 343.031C754.201 344.325 755.531 345.093 756.825 344.746Z" fill="#00DBD9"/>
</g>
<g opacity="0.5">
<path opacity="0.5" d="M796.77 334.042C798.064 333.695 798.832 332.365 798.485 331.072C798.138 329.778 796.808 329.01 795.515 329.357C794.221 329.703 793.453 331.033 793.8 332.327C794.146 333.621 795.476 334.389 796.77 334.042Z" fill="#00DBD9"/>
</g>
<g opacity="0.5">
<path opacity="0.5" d="M836.817 323.312C838.111 322.966 838.878 321.636 838.532 320.342C838.185 319.048 836.855 318.28 835.561 318.627C834.268 318.974 833.5 320.304 833.846 321.598C834.193 322.891 835.523 323.659 836.817 323.312Z" fill="#00DBD9"/>
</g>
<g opacity="0.5">
<path opacity="0.5" d="M876.887 312.575C878.181 312.228 878.949 310.899 878.602 309.605C878.255 308.311 876.926 307.543 875.632 307.89C874.338 308.237 873.57 309.566 873.917 310.86C874.263 312.154 875.593 312.922 876.887 312.575Z" fill="#00DBD9"/>
</g>
<g opacity="0.5">
<path opacity="0.5" d="M916.829 301.874C918.122 301.527 918.89 300.197 918.543 298.904C918.197 297.61 916.867 296.842 915.573 297.189C914.279 297.535 913.512 298.865 913.858 300.159C914.205 301.453 915.535 302.221 916.829 301.874Z" fill="#00DBD9"/>
</g>
<g opacity="0.5">
<path opacity="0.5" d="M956.887 291.141C958.181 290.794 958.949 289.464 958.602 288.17C958.255 286.876 956.926 286.109 955.632 286.455C954.338 286.802 953.57 288.132 953.917 289.426C954.263 290.719 955.593 291.487 956.887 291.141Z" fill="#00DBD9"/>
</g>
<g opacity="0.5">
<path opacity="0.5" d="M996.957 280.403C998.251 280.057 999.019 278.727 998.672 277.433C998.326 276.139 996.996 275.371 995.702 275.718C994.408 276.065 993.64 277.395 993.987 278.688C994.334 279.982 995.664 280.75 996.957 280.403Z" fill="#00DBD9"/>
</g>
<g opacity="0.5">
<path opacity="0.5" d="M1036.89 269.7C1038.18 269.353 1038.95 268.024 1038.61 266.73C1038.26 265.436 1036.93 264.668 1035.64 265.015C1034.34 265.362 1033.57 266.691 1033.92 267.985C1034.27 269.279 1035.6 270.047 1036.89 269.7Z" fill="#00DBD9"/>
</g>
<g opacity="0.5">
<path opacity="0.5" d="M1076.95 258.969C1078.24 258.622 1079.01 257.292 1078.66 255.998C1078.32 254.705 1076.99 253.937 1075.69 254.283C1074.4 254.63 1073.63 255.96 1073.98 257.254C1074.33 258.548 1075.66 259.315 1076.95 258.969Z" fill="#00DBD9"/>
</g>
<g opacity="0.5">
<path opacity="0.5" d="M1116.89 248.267C1118.18 247.92 1118.95 246.59 1118.61 245.296C1118.26 244.002 1116.93 243.235 1115.64 243.581C1114.34 243.928 1113.57 245.258 1113.92 246.552C1114.27 247.845 1115.6 248.613 1116.89 248.267Z" fill="#00DBD9"/>
</g>
<g opacity="0.5">
<path opacity="0.5" d="M1156.96 237.531C1158.25 237.185 1159.02 235.855 1158.67 234.561C1158.33 233.267 1157 232.499 1155.7 232.846C1154.41 233.193 1153.64 234.522 1153.99 235.816C1154.33 237.11 1155.66 237.878 1156.96 237.531Z" fill="#00DBD9"/>
</g>
</g>
<g opacity="0.5">
<g opacity="0.5">
<path opacity="0.5" d="M724.539 384.413C725.833 384.066 726.601 382.736 726.254 381.443C725.908 380.149 724.578 379.381 723.284 379.728C721.99 380.074 721.222 381.404 721.569 382.698C721.916 383.992 723.246 384.76 724.539 384.413Z" fill="#00DBD9"/>
</g>
<g opacity="0.5">
<path opacity="0.5" d="M764.602 373.678C765.896 373.331 766.664 372.001 766.317 370.707C765.97 369.414 764.64 368.646 763.347 368.992C762.053 369.339 761.285 370.669 761.632 371.963C761.978 373.257 763.308 374.024 764.602 373.678Z" fill="#00DBD9"/>
</g>
<g opacity="0.5">
<path opacity="0.5" d="M804.543 362.972C805.837 362.625 806.605 361.295 806.258 360.001C805.912 358.707 804.582 357.94 803.288 358.286C801.994 358.633 801.226 359.963 801.573 361.257C801.92 362.55 803.25 363.318 804.543 362.972Z" fill="#00DBD9"/>
</g>
<g opacity="0.5">
<path opacity="0.5" d="M844.606 352.239C845.9 351.893 846.668 350.563 846.321 349.269C845.974 347.975 844.644 347.207 843.35 347.554C842.057 347.901 841.289 349.23 841.636 350.524C841.982 351.818 843.312 352.586 844.606 352.239Z" fill="#00DBD9"/>
</g>
<g opacity="0.5">
<path opacity="0.5" d="M884.664 341.508C885.958 341.161 886.726 339.831 886.379 338.537C886.033 337.244 884.703 336.476 883.409 336.822C882.115 337.169 881.347 338.499 881.694 339.793C882.041 341.087 883.371 341.854 884.664 341.508Z" fill="#00DBD9"/>
</g>
<g opacity="0.5">
<path opacity="0.5" d="M924.606 330.808C925.9 330.461 926.668 329.131 926.321 327.837C925.974 326.543 924.644 325.776 923.35 326.122C922.057 326.469 921.289 327.799 921.636 329.093C921.982 330.386 923.312 331.154 924.606 330.808Z" fill="#00DBD9"/>
</g>
<g opacity="0.5">
<path opacity="0.5" d="M964.657 320.071C965.95 319.725 966.718 318.395 966.372 317.101C966.025 315.807 964.695 315.039 963.401 315.386C962.107 315.733 961.34 317.062 961.686 318.356C962.033 319.65 963.363 320.418 964.657 320.071Z" fill="#00DBD9"/>
</g>
<g opacity="0.5">
<path opacity="0.5" d="M1004.72 309.338C1006.01 308.991 1006.78 307.661 1006.43 306.367C1006.09 305.074 1004.76 304.306 1003.46 304.653C1002.17 304.999 1001.4 306.329 1001.75 307.623C1002.1 308.917 1003.43 309.685 1004.72 309.338Z" fill="#00DBD9"/>
</g>
<g opacity="0.5">
<path opacity="0.5" d="M1044.66 298.636C1045.96 298.289 1046.73 296.959 1046.38 295.665C1046.03 294.372 1044.7 293.604 1043.41 293.95C1042.12 294.297 1041.35 295.627 1041.69 296.921C1042.04 298.215 1043.37 298.982 1044.66 298.636Z" fill="#00DBD9"/>
</g>
<g opacity="0.5">
<path opacity="0.5" d="M1084.73 287.899C1086.02 287.553 1086.79 286.223 1086.44 284.929C1086.1 283.635 1084.77 282.867 1083.47 283.214C1082.18 283.561 1081.41 284.891 1081.76 286.184C1082.1 287.478 1083.43 288.246 1084.73 287.899Z" fill="#00DBD9"/>
</g>
<g opacity="0.5">
<path opacity="0.5" d="M1124.67 277.201C1125.97 276.854 1126.73 275.525 1126.39 274.231C1126.04 272.937 1124.71 272.169 1123.42 272.516C1122.12 272.862 1121.36 274.192 1121.7 275.486C1122.05 276.78 1123.38 277.548 1124.67 277.201Z" fill="#00DBD9"/>
</g>
<g opacity="0.5">
<path opacity="0.5" d="M1164.71 266.468C1166.01 266.121 1166.77 264.791 1166.43 263.497C1166.08 262.204 1164.75 261.436 1163.46 261.782C1162.16 262.129 1161.39 263.459 1161.74 264.753C1162.09 266.047 1163.42 266.814 1164.71 266.468Z" fill="#00DBD9"/>
</g>
</g>
<g opacity="0.5">
<g opacity="0.5">
<path opacity="0.5" d="M732.247 413.229C733.54 412.883 734.308 411.553 733.961 410.259C733.615 408.965 732.285 408.197 730.991 408.544C729.697 408.891 728.929 410.221 729.276 411.514C729.623 412.808 730.953 413.576 732.247 413.229Z" fill="#00DBD9"/>
</g>
<g opacity="0.5">
<path opacity="0.5" d="M772.313 402.492C773.607 402.145 774.375 400.816 774.028 399.522C773.681 398.228 772.351 397.46 771.057 397.807C769.764 398.154 768.996 399.483 769.343 400.777C769.689 402.071 771.019 402.839 772.313 402.492Z" fill="#00DBD9"/>
</g>
<g opacity="0.5">
<path opacity="0.5" d="M812.243 391.792C813.536 391.445 814.304 390.115 813.958 388.822C813.611 387.528 812.281 386.76 810.987 387.107C809.693 387.453 808.926 388.783 809.272 390.077C809.619 391.371 810.949 392.139 812.243 391.792Z" fill="#00DBD9"/>
</g>
<g opacity="0.5">
<path opacity="0.5" d="M852.309 381.06C853.603 380.713 854.371 379.383 854.024 378.089C853.677 376.795 852.347 376.028 851.054 376.374C849.76 376.721 848.992 378.051 849.339 379.345C849.685 380.638 851.015 381.406 852.309 381.06Z" fill="#00DBD9"/>
</g>
<g opacity="0.5">
<path opacity="0.5" d="M892.364 370.324C893.658 369.978 894.425 368.648 894.079 367.354C893.732 366.06 892.402 365.292 891.108 365.639C889.814 365.986 889.047 367.315 889.393 368.609C889.74 369.903 891.07 370.671 892.364 370.324Z" fill="#00DBD9"/>
</g>
<g opacity="0.5">
<path opacity="0.5" d="M932.309 359.622C933.603 359.275 934.371 357.945 934.024 356.652C933.677 355.358 932.347 354.59 931.054 354.937C929.76 355.283 928.992 356.613 929.339 357.907C929.685 359.201 931.015 359.969 932.309 359.622Z" fill="#00DBD9"/>
</g>
<g opacity="0.5">
<path opacity="0.5" d="M972.368 348.89C973.661 348.543 974.429 347.213 974.083 345.919C973.736 344.625 972.406 343.858 971.112 344.204C969.818 344.551 969.051 345.881 969.397 347.175C969.744 348.468 971.074 349.236 972.368 348.89Z" fill="#00DBD9"/>
</g>
<g opacity="0.5">
<path opacity="0.5" d="M1012.44 338.152C1013.74 337.806 1014.5 336.476 1014.16 335.182C1013.81 333.888 1012.48 333.12 1011.19 333.467C1009.89 333.814 1009.12 335.144 1009.47 336.437C1009.82 337.731 1011.15 338.499 1012.44 338.152Z" fill="#00DBD9"/>
</g>
<g opacity="0.5">
<path opacity="0.5" d="M1052.38 327.448C1053.68 327.102 1054.44 325.772 1054.1 324.478C1053.75 323.184 1052.42 322.416 1051.13 322.763C1049.83 323.11 1049.07 324.439 1049.41 325.733C1049.76 327.027 1051.09 327.795 1052.38 327.448Z" fill="#00DBD9"/>
</g>
<g opacity="0.5">
<path opacity="0.5" d="M1092.42 316.718C1093.71 316.371 1094.48 315.041 1094.13 313.747C1093.79 312.454 1092.46 311.686 1091.16 312.032C1089.87 312.379 1089.1 313.709 1089.45 315.003C1089.79 316.297 1091.12 317.064 1092.42 316.718Z" fill="#00DBD9"/>
</g>
<g opacity="0.5">
<path opacity="0.5" d="M1132.38 306.016C1133.67 305.669 1134.44 304.339 1134.09 303.045C1133.74 301.751 1132.41 300.984 1131.12 301.33C1129.83 301.677 1129.06 303.007 1129.41 304.301C1129.75 305.594 1131.08 306.362 1132.38 306.016Z" fill="#00DBD9"/>
</g>
<g opacity="0.5">
<path opacity="0.5" d="M1172.43 295.28C1173.72 294.934 1174.49 293.604 1174.15 292.31C1173.8 291.016 1172.47 290.248 1171.17 290.595C1169.88 290.942 1169.11 292.271 1169.46 293.565C1169.81 294.859 1171.14 295.627 1172.43 295.28Z" fill="#00DBD9"/>
</g>
</g>
</g>
</g>
<g opacity="0.5">
<g opacity="0.5">
<g opacity="0.5">
<g opacity="0.5">
<path opacity="0.5" d="M80.826 409.005C82.1198 408.659 82.8876 407.329 82.5409 406.035C82.1943 404.741 80.8644 403.973 79.5706 404.32C78.2767 404.667 77.5089 405.996 77.8556 407.29C78.2023 408.584 79.5322 409.352 80.826 409.005Z" fill="#00DBD9"/>
</g>
<g opacity="0.5">
<path opacity="0.5" d="M120.892 398.274C122.186 397.928 122.954 396.598 122.607 395.304C122.26 394.01 120.93 393.242 119.637 393.589C118.343 393.936 117.575 395.265 117.922 396.559C118.268 397.853 119.598 398.621 120.892 398.274Z" fill="#00DBD9"/>
</g>
<g opacity="0.5">
<path opacity="0.5" d="M160.821 387.569C162.115 387.222 162.882 385.892 162.536 384.599C162.189 383.305 160.859 382.537 159.565 382.884C158.272 383.23 157.504 384.56 157.85 385.854C158.197 387.148 159.527 387.916 160.821 387.569Z" fill="#00DBD9"/>
</g>
<g opacity="0.5">
<path opacity="0.5" d="M200.893 376.834C202.186 376.487 202.954 375.157 202.608 373.864C202.261 372.57 200.931 371.802 199.637 372.149C198.343 372.495 197.576 373.825 197.922 375.119C198.269 376.413 199.599 377.181 200.893 376.834Z" fill="#00DBD9"/>
</g>
<g opacity="0.5">
<path opacity="0.5" d="M240.939 366.102C242.233 365.756 243.001 364.426 242.654 363.132C242.308 361.838 240.978 361.07 239.684 361.417C238.39 361.764 237.622 363.094 237.969 364.387C238.316 365.681 239.646 366.449 240.939 366.102Z" fill="#00DBD9"/>
</g>
<g opacity="0.5">
<path opacity="0.5" d="M280.896 355.401C282.19 355.054 282.957 353.724 282.611 352.431C282.264 351.137 280.934 350.369 279.64 350.716C278.347 351.062 277.579 352.392 277.926 353.686C278.272 354.98 279.602 355.748 280.896 355.401Z" fill="#00DBD9"/>
</g>
<g opacity="0.5">
<path opacity="0.5" d="M320.954 344.664C322.247 344.317 323.015 342.987 322.669 341.694C322.322 340.4 320.992 339.632 319.698 339.979C318.404 340.325 317.637 341.655 317.983 342.949C318.33 344.243 319.66 345.011 320.954 344.664Z" fill="#00DBD9"/>
</g>
<g opacity="0.5">
<path opacity="0.5" d="M361.017 333.932C362.311 333.586 363.079 332.256 362.732 330.962C362.385 329.668 361.055 328.9 359.762 329.247C358.468 329.594 357.7 330.924 358.047 332.217C358.393 333.511 359.723 334.279 361.017 333.932Z" fill="#00DBD9"/>
</g>
<g opacity="0.5">
<path opacity="0.5" d="M400.948 323.231C402.241 322.884 403.009 321.554 402.662 320.261C402.316 318.967 400.986 318.199 399.692 318.546C398.398 318.892 397.63 320.222 397.977 321.516C398.324 322.81 399.654 323.578 400.948 323.231Z" fill="#00DBD9"/>
</g>
<g opacity="0.5">
<path opacity="0.5" d="M441.01 312.496C442.304 312.149 443.072 310.819 442.725 309.525C442.378 308.232 441.048 307.464 439.755 307.81C438.461 308.157 437.693 309.487 438.04 310.781C438.386 312.075 439.716 312.842 441.01 312.496Z" fill="#00DBD9"/>
</g>
</g>
</g>
<g opacity="0.5">
<g opacity="0.5">
<g opacity="0.5">
<path opacity="0.5" d="M64.1306 346.688C65.4244 346.342 66.1922 345.012 65.8455 343.718C65.4988 342.424 64.1689 341.656 62.8751 342.003C61.5813 342.35 60.8135 343.68 61.1602 344.973C61.5069 346.267 62.8367 347.035 64.1306 346.688Z" fill="#00DBD9"/>
</g>
<g opacity="0.5">
<path opacity="0.5" d="M104.196 335.952C105.49 335.605 106.258 334.275 105.911 332.981C105.565 331.688 104.235 330.92 102.941 331.266C101.647 331.613 100.879 332.943 101.226 334.237C101.573 335.531 102.903 336.298 104.196 335.952Z" fill="#00DBD9"/>
</g>
<g opacity="0.5">
<path opacity="0.5" d="M144.142 325.25C145.435 324.903 146.203 323.573 145.857 322.279C145.51 320.985 144.18 320.218 142.886 320.564C141.592 320.911 140.825 322.241 141.171 323.535C141.518 324.829 142.848 325.596 144.142 325.25Z" fill="#00DBD9"/>
</g>
<g opacity="0.5">
<path opacity="0.5" d="M184.189 314.52C185.482 314.173 186.25 312.844 185.903 311.55C185.557 310.256 184.227 309.488 182.933 309.835C181.639 310.182 180.871 311.511 181.218 312.805C181.565 314.099 182.895 314.867 184.189 314.52Z" fill="#00DBD9"/>
</g>
<g opacity="0.5">
<path opacity="0.5" d="M224.263 303.783C225.557 303.436 226.325 302.106 225.978 300.812C225.632 299.519 224.302 298.751 223.008 299.098C221.714 299.444 220.946 300.774 221.293 302.068C221.64 303.362 222.969 304.13 224.263 303.783Z" fill="#00DBD9"/>
</g>
<g opacity="0.5">
<path opacity="0.5" d="M264.201 293.081C265.495 292.735 266.263 291.405 265.916 290.111C265.569 288.817 264.239 288.049 262.946 288.396C261.652 288.743 260.884 290.073 261.231 291.366C261.577 292.66 262.907 293.428 264.201 293.081Z" fill="#00DBD9"/>
</g>
<g opacity="0.5">
<path opacity="0.5" d="M304.259 282.348C305.553 282.002 306.32 280.672 305.974 279.378C305.627 278.084 304.297 277.316 303.003 277.663C301.71 278.01 300.942 279.34 301.288 280.633C301.635 281.927 302.965 282.695 304.259 282.348Z" fill="#00DBD9"/>
</g>
<g opacity="0.5">
<path opacity="0.5" d="M344.321 271.614C345.615 271.267 346.383 269.937 346.036 268.644C345.69 267.35 344.36 266.582 343.066 266.929C341.772 267.275 341.004 268.605 341.351 269.899C341.698 271.193 343.028 271.961 344.321 271.614Z" fill="#00DBD9"/>
</g>
<g opacity="0.5">
<path opacity="0.5" d="M384.259 260.908C385.553 260.561 386.32 259.231 385.974 257.937C385.627 256.644 384.297 255.876 383.003 256.223C381.71 256.569 380.942 257.899 381.288 259.193C381.635 260.487 382.965 261.255 384.259 260.908Z" fill="#00DBD9"/>
</g>
<g opacity="0.5">
<path opacity="0.5" d="M424.326 250.178C425.62 249.832 426.388 248.502 426.041 247.208C425.694 245.914 424.364 245.146 423.071 245.493C421.777 245.84 421.009 247.169 421.356 248.463C421.702 249.757 423.032 250.525 424.326 250.178Z" fill="#00DBD9"/>
</g>
<g opacity="0.5">
<path opacity="0.5" d="M464.256 239.474C465.55 239.128 466.318 237.798 465.971 236.504C465.624 235.21 464.294 234.442 463 234.789C461.707 235.136 460.939 236.466 461.286 237.759C461.632 239.053 462.962 239.821 464.256 239.474Z" fill="#00DBD9"/>
</g>
<g opacity="0.5">
<path opacity="0.5" d="M504.329 228.737C505.623 228.39 506.391 227.06 506.044 225.767C505.697 224.473 504.368 223.705 503.074 224.052C501.78 224.398 501.012 225.728 501.359 227.022C501.705 228.316 503.035 229.084 504.329 228.737Z" fill="#00DBD9"/>
</g>
</g>
<g opacity="0.5">
<g opacity="0.5">
<path opacity="0.5" d="M71.8412 375.511C73.135 375.164 73.9028 373.834 73.5561 372.54C73.2094 371.246 71.8796 370.479 70.5858 370.825C69.2919 371.172 68.5241 372.502 68.8708 373.796C69.2175 375.089 70.5474 375.857 71.8412 375.511Z" fill="#00DBD9"/>
</g>
<g opacity="0.5">
<path opacity="0.5" d="M111.911 364.771C113.205 364.425 113.973 363.095 113.626 361.801C113.28 360.507 111.95 359.739 110.656 360.086C109.362 360.433 108.594 361.762 108.941 363.056C109.288 364.35 110.618 365.118 111.911 364.771Z" fill="#00DBD9"/>
</g>
<g opacity="0.5">
<path opacity="0.5" d="M151.853 354.07C153.147 353.723 153.915 352.394 153.568 351.1C153.221 349.806 151.891 349.038 150.597 349.385C149.304 349.731 148.536 351.061 148.883 352.355C149.229 353.649 150.559 354.417 151.853 354.07Z" fill="#00DBD9"/>
</g>
<g opacity="0.5">
<path opacity="0.5" d="M191.911 343.335C193.205 342.988 193.973 341.658 193.626 340.364C193.28 339.071 191.95 338.303 190.656 338.649C189.362 338.996 188.594 340.326 188.941 341.62C189.288 342.914 190.618 343.681 191.911 343.335Z" fill="#00DBD9"/>
</g>
<g opacity="0.5">
<path opacity="0.5" d="M231.974 332.605C233.268 332.259 234.036 330.929 233.689 329.635C233.342 328.341 232.012 327.573 230.719 327.92C229.425 328.267 228.657 329.596 229.004 330.89C229.35 332.184 230.68 332.952 231.974 332.605Z" fill="#00DBD9"/>
</g>
<g opacity="0.5">
<path opacity="0.5" d="M271.908 321.899C273.201 321.553 273.969 320.223 273.623 318.929C273.276 317.635 271.946 316.867 270.652 317.214C269.358 317.561 268.591 318.89 268.937 320.184C269.284 321.478 270.614 322.246 271.908 321.899Z" fill="#00DBD9"/>
</g>
<g opacity="0.5">
<path opacity="0.5" d="M311.966 311.169C313.26 310.822 314.028 309.492 313.681 308.198C313.334 306.905 312.005 306.137 310.711 306.483C309.417 306.83 308.649 308.16 308.996 309.454C309.342 310.748 310.672 311.515 311.966 311.169Z" fill="#00DBD9"/>
</g>
<g opacity="0.5">
<path opacity="0.5" d="M352.033 300.432C353.326 300.086 354.094 298.756 353.748 297.462C353.401 296.168 352.071 295.4 350.777 295.747C349.483 296.094 348.716 297.424 349.062 298.717C349.409 300.011 350.739 300.779 352.033 300.432Z" fill="#00DBD9"/>
</g>
<g opacity="0.5">
<path opacity="0.5" d="M391.978 289.727C393.272 289.381 394.04 288.051 393.693 286.757C393.346 285.463 392.016 284.695 390.722 285.042C389.429 285.389 388.661 286.719 389.008 288.012C389.354 289.306 390.684 290.074 391.978 289.727Z" fill="#00DBD9"/>
</g>
<g opacity="0.5">
<path opacity="0.5" d="M432.029 278.999C433.322 278.652 434.09 277.322 433.744 276.028C433.397 274.735 432.067 273.967 430.773 274.313C429.479 274.66 428.712 275.99 429.058 277.284C429.405 278.578 430.735 279.345 432.029 278.999Z" fill="#00DBD9"/>
</g>
<g opacity="0.5">
<path opacity="0.5" d="M471.978 268.292C473.272 267.945 474.04 266.615 473.693 265.321C473.346 264.028 472.016 263.26 470.722 263.606C469.429 263.953 468.661 265.283 469.008 266.577C469.354 267.871 470.684 268.638 471.978 268.292Z" fill="#00DBD9"/>
</g>
<g opacity="0.5">
<path opacity="0.5" d="M512.04 257.559C513.334 257.213 514.102 255.883 513.755 254.589C513.409 253.295 512.079 252.527 510.785 252.874C509.491 253.221 508.723 254.551 509.07 255.844C509.417 257.138 510.747 257.906 512.04 257.559Z" fill="#00DBD9"/>
</g>
</g>
</g>
</g>
<g opacity="0.5">
<g opacity="0.5">
<g opacity="0.5">
<g opacity="0.5">
<path opacity="0.5" d="M8.89886 140.539C10.1927 140.192 10.9605 138.862 10.6138 137.569C10.2671 136.275 8.93725 135.507 7.64344 135.854C6.34962 136.2 5.58182 137.53 5.92849 138.824C6.27517 140.118 7.60505 140.886 8.89886 140.539Z" fill="#00DBD9"/>
</g>
<g opacity="0.5">
<path opacity="0.5" d="M48.9535 129.806C50.2474 129.459 51.0152 128.129 50.6685 126.835C50.3218 125.541 48.9919 124.774 47.6981 125.12C46.4043 125.467 45.6365 126.797 45.9832 128.091C46.3299 129.385 47.6597 130.152 48.9535 129.806Z" fill="#00DBD9"/>
</g>
<g opacity="0.5">
<path opacity="0.5" d="M88.9028 119.101C90.1966 118.754 90.9644 117.424 90.6177 116.13C90.271 114.836 88.9412 114.069 87.6473 114.415C86.3535 114.762 85.5857 116.092 85.9324 117.386C86.2791 118.679 87.609 119.447 88.9028 119.101Z" fill="#00DBD9"/>
</g>
<g opacity="0.5">
<path opacity="0.5" d="M128.95 108.368C130.243 108.021 131.011 106.692 130.665 105.398C130.318 104.104 128.988 103.336 127.694 103.683C126.4 104.03 125.633 105.359 125.979 106.653C126.326 107.947 127.656 108.715 128.95 108.368Z" fill="#00DBD9"/>
</g>
<g opacity="0.5">
<path opacity="0.5" d="M169.02 97.6328C170.314 97.2861 171.082 95.9562 170.735 94.6624C170.388 93.3686 169.058 92.6008 167.765 92.9475C166.471 93.2942 165.703 94.624 166.05 95.9179C166.396 97.2117 167.726 97.9795 169.02 97.6328Z" fill="#00DBD9"/>
</g>
<g opacity="0.5">
<path opacity="0.5" d="M208.961 86.9306C210.255 86.584 211.023 85.2541 210.676 83.9603C210.33 82.6665 209 81.8987 207.706 82.2453C206.412 82.592 205.644 83.9219 205.991 85.2157C206.338 86.5095 207.668 87.2773 208.961 86.9306Z" fill="#00DBD9"/>
</g>
<g opacity="0.5">
<path opacity="0.5" d="M249.016 76.1982C250.31 75.8515 251.078 74.5217 250.731 73.2279C250.384 71.934 249.054 71.1662 247.761 71.5129C246.467 71.8596 245.699 73.1895 246.046 74.4833C246.392 75.7771 247.722 76.5449 249.016 76.1982Z" fill="#00DBD9"/>
</g>
<g opacity="0.5">
<path opacity="0.5" d="M289.082 65.4668C290.376 65.1201 291.144 63.7903 290.797 62.4964C290.451 61.2026 289.121 60.4348 287.827 60.7815C286.533 61.1282 285.765 62.4581 286.112 63.7519C286.459 65.0457 287.789 65.8135 289.082 65.4668Z" fill="#00DBD9"/>
</g>
<g opacity="0.5">
<path opacity="0.5" d="M329.028 54.7607C330.322 54.414 331.089 53.0842 330.743 51.7904C330.396 50.4965 329.066 49.7287 327.772 50.0754C326.479 50.4221 325.711 51.752 326.057 53.0458C326.404 54.3396 327.734 55.1074 329.028 54.7607Z" fill="#00DBD9"/>
</g>
<g opacity="0.5">
<path opacity="0.5" d="M369.082 44.0234C370.376 43.6767 371.144 42.3469 370.797 41.0531C370.451 39.7592 369.121 38.9914 367.827 39.3381C366.533 39.6848 365.765 41.0147 366.112 42.3085C366.459 43.6023 367.789 44.3701 369.082 44.0234Z" fill="#00DBD9"/>
</g>
<g opacity="0.5">
<path opacity="0.5" d="M409.016 33.3291C410.31 32.9824 411.078 31.6525 410.731 30.3587C410.384 29.0649 409.054 28.2971 407.761 28.6438C406.467 28.9904 405.699 30.3203 406.046 31.6141C406.392 32.908 407.722 33.6758 409.016 33.3291Z" fill="#00DBD9"/>
</g>
<g opacity="0.5">
<path opacity="0.5" d="M449.086 22.5888C450.38 22.2422 451.148 20.9123 450.801 19.6185C450.455 18.3247 449.125 17.5569 447.831 17.9035C446.537 18.2502 445.769 19.5801 446.116 20.8739C446.463 22.1677 447.793 22.9355 449.086 22.5888Z" fill="#00DBD9"/>
</g>
</g>
</g>
</g>
<g opacity="0.5">
<g opacity="0.5">
<g opacity="0.5">
<g opacity="0.5">
<path opacity="0.5" d="M151.13 671.385C152.424 671.038 153.192 669.708 152.845 668.414C152.499 667.121 151.169 666.353 149.875 666.699C148.581 667.046 147.813 668.376 148.16 669.67C148.507 670.964 149.836 671.731 151.13 671.385Z" fill="#00DBD9"/>
</g>
<g opacity="0.5">
<path opacity="0.5" d="M191.188 660.644C192.482 660.298 193.25 658.968 192.903 657.674C192.557 656.38 191.227 655.612 189.933 655.959C188.639 656.306 187.871 657.636 188.218 658.929C188.565 660.223 189.895 660.991 191.188 660.644Z" fill="#00DBD9"/>
</g>
<g opacity="0.5">
<path opacity="0.5" d="M231.137 649.945C232.431 649.598 233.198 648.268 232.852 646.974C232.505 645.68 231.175 644.913 229.881 645.259C228.588 645.606 227.82 646.936 228.166 648.23C228.513 649.523 229.843 650.291 231.137 649.945Z" fill="#00DBD9"/>
</g>
<g opacity="0.5">
<path opacity="0.5" d="M271.2 639.212C272.493 638.865 273.261 637.535 272.915 636.242C272.568 634.948 271.238 634.18 269.944 634.527C268.65 634.873 267.883 636.203 268.229 637.497C268.576 638.791 269.906 639.559 271.2 639.212Z" fill="#00DBD9"/>
</g>
<g opacity="0.5">
<path opacity="0.5" d="M311.262 628.475C312.556 628.128 313.324 626.798 312.977 625.504C312.63 624.21 311.301 623.443 310.007 623.789C308.713 624.136 307.945 625.466 308.292 626.76C308.638 628.053 309.968 628.821 311.262 628.475Z" fill="#00DBD9"/>
</g>
<g opacity="0.5">
<path opacity="0.5" d="M351.192 617.776C352.486 617.43 353.253 616.1 352.907 614.806C352.56 613.512 351.23 612.744 349.936 613.091C348.643 613.438 347.875 614.768 348.221 616.061C348.568 617.355 349.898 618.123 351.192 617.776Z" fill="#00DBD9"/>
</g>
<g opacity="0.5">
<path opacity="0.5" d="M391.267 607.035C392.56 606.689 393.328 605.359 392.982 604.065C392.635 602.771 391.305 602.003 390.011 602.35C388.717 602.697 387.95 604.027 388.296 605.32C388.643 606.614 389.973 607.382 391.267 607.035Z" fill="#00DBD9"/>
</g>
<g opacity="0.5">
<path opacity="0.5" d="M431.316 596.308C432.61 595.961 433.378 594.631 433.031 593.337C432.685 592.044 431.355 591.276 430.061 591.622C428.767 591.969 427.999 593.299 428.346 594.593C428.693 595.887 430.022 596.654 431.316 596.308Z" fill="#00DBD9"/>
</g>
<g opacity="0.5">
<path opacity="0.5" d="M471.223 585.487C469.935 585.833 468.598 585.061 468.253 583.772C467.908 582.484 468.679 581.147 469.968 580.802" fill="#00DBD9"/>
</g>
</g>
</g>
<g opacity="0.5">
<g opacity="0.5">
<g opacity="0.5">
<path opacity="0.5" d="M134.446 609.066C135.74 608.72 136.507 607.39 136.161 606.096C135.814 604.802 134.484 604.034 133.19 604.381C131.896 604.728 131.129 606.058 131.475 607.351C131.822 608.645 133.152 609.413 134.446 609.066Z" fill="#00DBD9"/>
</g>
<g opacity="0.5">
<path opacity="0.5" d="M174.501 598.334C175.794 597.987 176.562 596.657 176.215 595.363C175.869 594.07 174.539 593.302 173.245 593.648C171.951 593.995 171.184 595.325 171.53 596.619C171.877 597.913 173.207 598.68 174.501 598.334Z" fill="#00DBD9"/>
</g>
<g opacity="0.5">
<path opacity="0.5" d="M214.446 587.632C215.74 587.285 216.507 585.955 216.161 584.661C215.814 583.368 214.484 582.6 213.19 582.946C211.896 583.293 211.129 584.623 211.475 585.917C211.822 587.211 213.152 587.978 214.446 587.632Z" fill="#00DBD9"/>
</g>
<g opacity="0.5">
<path opacity="0.5" d="M254.493 576.901C255.786 576.555 256.554 575.225 256.208 573.931C255.861 572.637 254.531 571.869 253.237 572.216C251.943 572.563 251.176 573.893 251.522 575.186C251.869 576.48 253.199 577.248 254.493 576.901Z" fill="#00DBD9"/>
</g>
<g opacity="0.5">
<path opacity="0.5" d="M294.568 566.164C295.862 565.817 296.629 564.487 296.283 563.193C295.936 561.9 294.606 561.132 293.312 561.478C292.019 561.825 291.251 563.155 291.597 564.449C291.944 565.743 293.274 566.51 294.568 566.164Z" fill="#00DBD9"/>
</g>
<g opacity="0.5">
<path opacity="0.5" d="M334.509 555.466C335.802 555.119 336.57 553.789 336.224 552.495C335.877 551.201 334.547 550.434 333.253 550.78C331.959 551.127 331.192 552.457 331.538 553.751C331.885 555.044 333.215 555.812 334.509 555.466Z" fill="#00DBD9"/>
</g>
<g opacity="0.5">
<path opacity="0.5" d="M374.563 544.731C375.857 544.384 376.625 543.054 376.278 541.76C375.931 540.466 374.602 539.699 373.308 540.045C372.014 540.392 371.246 541.722 371.593 543.016C371.94 544.309 373.269 545.077 374.563 544.731Z" fill="#00DBD9"/>
</g>
</g>
<g opacity="0.5">
<g opacity="0.5">
<path opacity="0.5" d="M142.168 637.885C143.462 637.538 144.23 636.208 143.883 634.914C143.537 633.621 142.207 632.853 140.913 633.199C139.619 633.546 138.851 634.876 139.198 636.17C139.545 637.464 140.875 638.231 142.168 637.885Z" fill="#00DBD9"/>
</g>
<g opacity="0.5">
<path opacity="0.5" d="M182.219 627.149C183.513 626.803 184.281 625.473 183.934 624.179C183.587 622.885 182.258 622.117 180.964 622.464C179.67 622.811 178.902 624.141 179.249 625.434C179.595 626.728 180.925 627.496 182.219 627.149Z" fill="#00DBD9"/>
</g>
<g opacity="0.5">
<path opacity="0.5" d="M222.172 616.446C223.466 616.1 224.234 614.77 223.887 613.476C223.541 612.182 222.211 611.414 220.917 611.761C219.623 612.108 218.855 613.437 219.202 614.731C219.549 616.025 220.878 616.793 222.172 616.446Z" fill="#00DBD9"/>
</g>
<g opacity="0.5">
<path opacity="0.5" d="M262.227 605.711C263.521 605.364 264.289 604.034 263.942 602.741C263.595 601.447 262.265 600.679 260.972 601.026C259.678 601.372 258.91 602.702 259.257 603.996C259.603 605.29 260.933 606.058 262.227 605.711Z" fill="#00DBD9"/>
</g>
<g opacity="0.5">
<path opacity="0.5" d="M302.293 594.981C303.587 594.635 304.355 593.305 304.008 592.011C303.662 590.717 302.332 589.949 301.038 590.296C299.744 590.643 298.976 591.973 299.323 593.266C299.67 594.56 301 595.328 302.293 594.981Z" fill="#00DBD9"/>
</g>
<g opacity="0.5">
<path opacity="0.5" d="M342.223 584.277C343.517 583.931 344.285 582.601 343.938 581.307C343.591 580.013 342.261 579.245 340.968 579.592C339.674 579.939 338.906 581.269 339.253 582.562C339.599 583.856 340.929 584.624 342.223 584.277Z" fill="#00DBD9"/>
</g>
<g opacity="0.5">
<path opacity="0.5" d="M382.289 573.545C383.583 573.198 384.351 571.868 384.004 570.575C383.658 569.281 382.328 568.513 381.034 568.86C379.74 569.206 378.972 570.536 379.319 571.83C379.666 573.124 380.996 573.892 382.289 573.545Z" fill="#00DBD9"/>
</g>
</g>
</g>
</g>
<g opacity="0.5">
<g opacity="0.5">
<g opacity="0.5">
<g opacity="0.5">
<path opacity="0.5" d="M211.083 895.111C212.376 894.764 213.144 893.434 212.797 892.14C212.451 890.846 211.121 890.079 209.827 890.425C208.533 890.772 207.765 892.102 208.112 893.396C208.459 894.689 209.789 895.457 211.083 895.111Z" fill="#00DBD9"/>
</g>
<g opacity="0.5">
<path opacity="0.5" d="M251.137 884.379C252.431 884.032 253.199 882.703 252.852 881.409C252.505 880.115 251.176 879.347 249.882 879.694C248.588 880.04 247.82 881.37 248.167 882.664C248.514 883.958 249.843 884.726 251.137 884.379Z" fill="#00DBD9"/>
</g>
<g opacity="0.5">
<path opacity="0.5" d="M291.086 873.675C292.38 873.328 293.148 871.998 292.801 870.705C292.455 869.411 291.125 868.643 289.831 868.99C288.537 869.336 287.769 870.666 288.116 871.96C288.463 873.254 289.793 874.022 291.086 873.675Z" fill="#00DBD9"/>
</g>
<g opacity="0.5">
<path opacity="0.5" d="M331.145 862.94C332.439 862.593 333.207 861.263 332.86 859.969C332.513 858.675 331.183 857.908 329.89 858.254C328.596 858.601 327.828 859.931 328.175 861.225C328.521 862.519 329.851 863.286 331.145 862.94Z" fill="#00DBD9"/>
</g>
<g opacity="0.5">
<path opacity="0.5" d="M371.208 852.202C372.501 851.856 373.269 850.526 372.922 849.232C372.576 847.938 371.246 847.17 369.952 847.517C368.658 847.864 367.89 849.194 368.237 850.487C368.584 851.781 369.914 852.549 371.208 852.202Z" fill="#00DBD9"/>
</g>
<g opacity="0.5">
<path opacity="0.5" d="M411.137 841.505C412.431 841.158 413.199 839.829 412.852 838.535C412.505 837.241 411.176 836.473 409.882 836.82C408.588 837.166 407.82 838.496 408.167 839.79C408.514 841.084 409.843 841.852 411.137 841.505Z" fill="#00DBD9"/>
</g>
<g opacity="0.5">
<path opacity="0.5" d="M451.2 830.772C452.494 830.425 453.261 829.095 452.915 827.801C452.568 826.508 451.238 825.74 449.944 826.086C448.65 826.433 447.883 827.763 448.229 829.057C448.576 830.351 449.906 831.118 451.2 830.772Z" fill="#00DBD9"/>
</g>
<g opacity="0.5">
<path opacity="0.5" d="M491.258 820.037C492.552 819.691 493.32 818.361 492.973 817.067C492.627 815.773 491.297 815.005 490.003 815.352C488.709 815.699 487.941 817.029 488.288 818.322C488.635 819.616 489.965 820.384 491.258 820.037Z" fill="#00DBD9"/>
</g>
<g opacity="0.5">
<path opacity="0.5" d="M531.184 809.211C529.896 809.556 528.559 808.785 528.214 807.496C527.868 806.208 528.64 804.871 529.929 804.526" fill="#00DBD9"/>
</g>
</g>
</g>
<g opacity="0.5">
<g opacity="0.5">
<g opacity="0.5">
<path opacity="0.5" d="M194.391 832.786C195.685 832.44 196.453 831.11 196.106 829.816C195.759 828.522 194.429 827.754 193.136 828.101C191.842 828.448 191.074 829.778 191.421 831.071C191.767 832.365 193.097 833.133 194.391 832.786Z" fill="#00DBD9"/>
</g>
<g opacity="0.5">
<path opacity="0.5" d="M234.458 822.052C235.751 821.705 236.519 820.375 236.172 819.082C235.826 817.788 234.496 817.02 233.202 817.367C231.908 817.713 231.14 819.043 231.487 820.337C231.834 821.631 233.164 822.399 234.458 822.052Z" fill="#00DBD9"/>
</g>
<g opacity="0.5">
<path opacity="0.5" d="M274.395 811.351C275.689 811.005 276.457 809.675 276.11 808.381C275.763 807.087 274.433 806.319 273.139 806.666C271.846 807.013 271.078 808.343 271.425 809.636C271.771 810.93 273.101 811.698 274.395 811.351Z" fill="#00DBD9"/>
</g>
<g opacity="0.5">
<path opacity="0.5" d="M314.442 800.618C315.736 800.272 316.504 798.942 316.157 797.648C315.81 796.354 314.48 795.586 313.186 795.933C311.893 796.28 311.125 797.61 311.472 798.903C311.818 800.197 313.148 800.965 314.442 800.618Z" fill="#00DBD9"/>
</g>
<g opacity="0.5">
<path opacity="0.5" d="M354.512 789.882C355.806 789.535 356.574 788.205 356.227 786.911C355.88 785.617 354.55 784.85 353.257 785.196C351.963 785.543 351.195 786.873 351.542 788.167C351.888 789.461 353.218 790.228 354.512 789.882Z" fill="#00DBD9"/>
</g>
<g opacity="0.5">
<path opacity="0.5" d="M394.453 779.181C395.747 778.835 396.515 777.505 396.168 776.211C395.822 774.917 394.492 774.149 393.198 774.496C391.904 774.843 391.136 776.173 391.483 777.467C391.83 778.76 393.16 779.528 394.453 779.181Z" fill="#00DBD9"/>
</g>
<g opacity="0.5">
<path opacity="0.5" d="M434.512 768.446C435.806 768.099 436.574 766.77 436.227 765.476C435.88 764.182 434.55 763.414 433.257 763.761C431.963 764.107 431.195 765.437 431.542 766.731C431.888 768.025 433.218 768.793 434.512 768.446Z" fill="#00DBD9"/>
</g>
</g>
<g opacity="0.5">
<g opacity="0.5">
<path opacity="0.5" d="M202.11 861.598C203.404 861.252 204.172 859.922 203.825 858.628C203.478 857.334 202.148 856.566 200.855 856.913C199.561 857.26 198.793 858.59 199.14 859.883C199.486 861.177 200.816 861.945 202.11 861.598Z" fill="#00DBD9"/>
</g>
<g opacity="0.5">
<path opacity="0.5" d="M242.165 850.866C243.459 850.519 244.226 849.189 243.88 847.895C243.533 846.601 242.203 845.834 240.909 846.18C239.616 846.527 238.848 847.857 239.194 849.151C239.541 850.445 240.871 851.212 242.165 850.866Z" fill="#00DBD9"/>
</g>
<g opacity="0.5">
<path opacity="0.5" d="M282.114 840.165C283.408 839.818 284.176 838.488 283.829 837.194C283.482 835.901 282.152 835.133 280.858 835.479C279.565 835.826 278.797 837.156 279.144 838.45C279.49 839.744 280.82 840.511 282.114 840.165Z" fill="#00DBD9"/>
</g>
<g opacity="0.5">
<path opacity="0.5" d="M322.161 829.43C323.455 829.084 324.222 827.754 323.876 826.46C323.529 825.166 322.199 824.398 320.905 824.745C319.612 825.092 318.844 826.422 319.19 827.715C319.537 829.009 320.867 829.777 322.161 829.43Z" fill="#00DBD9"/>
</g>
<g opacity="0.5">
<path opacity="0.5" d="M362.231 818.698C363.525 818.351 364.293 817.021 363.946 815.727C363.6 814.433 362.27 813.666 360.976 814.012C359.682 814.359 358.914 815.689 359.261 816.983C359.608 818.277 360.937 819.044 362.231 818.698Z" fill="#00DBD9"/>
</g>
<g opacity="0.5">
<path opacity="0.5" d="M402.169 807.992C403.462 807.645 404.23 806.315 403.884 805.022C403.537 803.728 402.207 802.96 400.913 803.307C399.619 803.653 398.852 804.983 399.198 806.277C399.545 807.571 400.875 808.339 402.169 807.992Z" fill="#00DBD9"/>
</g>
<g opacity="0.5">
<path opacity="0.5" d="M442.235 797.262C443.529 796.916 444.297 795.586 443.95 794.292C443.603 792.998 442.273 792.23 440.98 792.577C439.686 792.924 438.918 794.254 439.265 795.547C439.611 796.841 440.941 797.609 442.235 797.262Z" fill="#00DBD9"/>
</g>
</g>
</g>
</g>
<path d="M166.684 411.737L160.593 413.369L190.661 525.582L196.751 523.95L166.684 411.737Z" fill="#00DBD9"/>
<path d="M166.805 412.206C185.429 407.216 193.105 424.618 220.28 417.337C247.454 410.055 249.215 399.289 266.206 400.386C266.206 400.386 253.589 405.775 247.156 415.032C240.839 424.257 240.595 448.175 216.064 451.735C191.532 455.295 180.332 462.691 182.341 470.187L166.805 412.206V412.206Z" fill="#00DBD9"/>
<path d="M223.331 525.737L180.226 537.287C178.001 537.883 175.624 536.511 175.028 534.286C174.432 532.06 175.804 529.684 178.029 529.088L221.134 517.538C223.36 516.941 225.736 518.313 226.332 520.539C226.929 522.764 225.557 525.141 223.331 525.737Z" fill="#00DBD9"/>
<path d="M249.893 718.99L208.284 707.541C205.448 706.794 204.475 703.163 206.527 700.982L236.711 669.794C237.694 668.777 239.217 668.369 240.577 668.758L282.311 680.675C285.179 681.539 286.121 685.053 284.069 687.234L253.759 717.954C252.776 718.97 251.253 719.378 249.893 718.99Z" fill="#00DBD9"/>
<path d="M288.239 702.814L281.972 700.978L256.202 727.091C255.219 728.107 253.697 728.515 252.337 728.126L216.963 718.397L212.454 723.12C210.402 725.302 211.344 728.816 214.212 729.68L255.821 741.128C257.18 741.517 258.703 741.109 259.686 740.092L289.996 709.373C292.048 707.191 291.224 703.646 288.239 702.814Z" fill="#00DBD9"/>
<path d="M293.54 722.612L287.273 720.776L261.504 746.889C260.521 747.905 258.998 748.313 257.638 747.924L222.264 738.195L217.755 742.918C215.703 745.1 216.645 748.614 219.513 749.478L261.122 760.926C262.482 761.315 264.004 760.907 264.987 759.89L295.298 729.171C297.381 727.106 296.525 723.444 293.54 722.612Z" fill="#00DBD9"/>
<path d="M299.129 743.458L292.863 741.622L267.093 767.735C266.11 768.752 264.587 769.16 263.228 768.771L227.854 759.041L223.345 763.765C221.293 765.947 222.234 769.461 225.102 770.324L266.711 781.773C268.071 782.162 269.594 781.754 270.577 780.737L300.887 750.018C302.939 747.836 302.083 744.173 299.129 743.458Z" fill="#00DBD9"/>
<path d="M304.675 910.828L325.067 933.987L355.746 930.412L339.897 957.005L352.812 985.056L322.753 978.296L299.985 999.211L297.144 968.461L270.122 953.355L298.595 941.08L304.675 910.828Z" fill="#00DBD9"/>
<path d="M1290.89 56.0201L995.832 135.081C985.173 137.937 974.182 131.591 971.326 120.932L932.628 -23.4924C929.772 -34.1515 936.117 -45.1419 946.776 -47.998L1241.83 -127.058C1252.49 -129.914 1263.48 -123.569 1266.34 -112.91L1305.04 31.5146C1307.89 42.1737 1301.55 53.164 1290.89 56.0201Z" fill="#00DBD9"/>
<path d="M1241.83 -127.058L946.776 -47.998C936.117 -45.1419 929.772 -34.1515 932.628 -23.4924L939.376 1.69111C936.52 -8.96797 942.865 -19.9583 953.524 -22.8144L1248.58 -101.875C1259.24 -104.731 1270.23 -98.3856 1273.09 -87.7266L1266.34 -112.91C1263.48 -123.569 1252.49 -129.914 1241.83 -127.058Z" fill="#007FEF"/>
<g opacity="0.5">
<g opacity="0.5">
<path d="M1251.04 -50.5568L1023.56 10.3941C1021.57 10.9277 1019.64 9.81298 1019.11 7.82172C1018.58 5.83047 1019.69 3.89973 1021.68 3.36617L1249.15 -57.5847C1251.14 -58.1183 1253.08 -57.0036 1253.61 -55.0123C1254.14 -53.0211 1253.03 -51.0903 1251.04 -50.5568Z" fill="#007FEF"/>
</g>
<g opacity="0.5">
<path d="M1218.58 -10.9787L1031.29 39.2069C1029.3 39.7405 1027.37 38.6258 1026.83 36.6345C1026.3 34.6432 1027.41 32.7125 1029.4 32.1789L1216.7 -18.0067C1218.69 -18.5402 1220.62 -17.4255 1221.16 -15.4343C1221.69 -13.443 1220.57 -11.5123 1218.58 -10.9787Z" fill="#007FEF"/>
</g>
<g opacity="0.5">
<path d="M1225.39 14.4394L1038.09 64.625C1036.1 65.1586 1034.17 64.0438 1033.64 62.0526C1033.1 60.0613 1034.22 58.1306 1036.21 57.597L1223.5 7.41141C1225.5 6.87786 1227.43 7.99257 1227.96 9.98383C1228.49 11.9751 1227.38 13.9058 1225.39 14.4394Z" fill="#007FEF"/>
</g>
<g opacity="0.5">
<path d="M1096.47 79.1144L1045.63 92.7357C1043.64 93.2693 1041.71 92.1546 1041.18 90.1633C1040.64 88.1721 1041.76 86.2413 1043.75 85.7078L1094.58 72.0864C1096.57 71.5528 1098.51 72.6675 1099.04 74.6588C1099.57 76.6501 1098.34 78.6122 1096.47 79.1144Z" fill="#007FEF"/>
</g>
</g>
<g opacity="0.5">
<path d="M984.917 21.2528C990.351 19.7968 993.575 14.2113 992.119 8.77729C990.663 3.34327 985.078 0.118498 979.644 1.57454C974.21 3.03058 970.985 8.61607 972.441 14.0501C973.897 19.4841 979.483 22.7089 984.917 21.2528Z" fill="#007FEF"/>
</g>
<path d="M1772.34 22.3044L1477.17 101.396C1466.51 104.252 1455.52 97.907 1452.66 87.2479L1403.92 -94.6592C1401.06 -105.318 1407.41 -116.309 1418.07 -119.165L1713.24 -198.257C1723.9 -201.113 1734.89 -194.767 1737.75 -184.108L1786.52 -2.08399C1789.35 8.45795 1783 19.4483 1772.34 22.3044Z" fill="#00DBD9"/>
<path d="M1860.49 245.875L1099.25 449.85C1089.06 452.581 1082.97 463.125 1085.7 473.316L1168.02 780.555C1170.76 790.746 1181.3 796.834 1191.49 794.103L1952.74 590.128C1962.93 587.397 1969.01 576.853 1966.28 566.662L1883.96 259.423C1881.23 249.232 1870.68 243.144 1860.49 245.875Z" fill="#00DBD9"/>
<g opacity="0.5">
<path d="M1217.15 764.255C1216.09 764.538 1214.94 764.469 1214.02 763.837C1211.97 762.754 1211.25 760.06 1212.37 758.129L1308.72 585.93L1393.07 634.634L1453.53 529.929L1638.58 636.77L1841.28 290.82C1842.48 288.741 1845.09 288.167 1847.02 289.282C1848.95 290.397 1849.68 293.091 1848.56 295.021L1641.66 648.249L1456.75 541.493L1396.3 646.199L1312.09 597.58L1219.99 762.237C1219.13 763.222 1218.2 763.973 1217.15 764.255Z" fill="#007FEF"/>
</g>
<path d="M1400.53 679.842C1399.59 676.328 1401.62 672.646 1405.25 671.673C1408.76 670.732 1412.44 672.758 1413.42 676.389" fill="#00DBD9"/>
<g opacity="0.5">
<path d="M1581.55 355.022L1132.58 475.323C1130.58 475.857 1128.65 474.742 1128.12 472.751C1127.59 470.759 1128.7 468.829 1130.69 468.295L1579.66 347.994C1581.65 347.46 1583.58 348.575 1584.12 350.566C1584.65 352.558 1583.42 354.52 1581.55 355.022Z" fill="#007FEF"/>
</g>
<g opacity="0.5">
<path d="M1453.06 416.688L1139.38 500.739C1137.39 501.273 1135.46 500.158 1134.93 498.167C1134.39 496.175 1135.51 494.245 1137.5 493.711L1451.18 409.66C1453.17 409.127 1455.1 410.242 1455.63 412.233C1456.17 414.224 1454.94 416.186 1453.06 416.688Z" fill="#007FEF"/>
</g>
<g opacity="0.5">
<path d="M1232.13 510.035L1147.8 532.633C1145.81 533.166 1143.88 532.051 1143.34 530.06C1142.81 528.069 1143.92 526.138 1145.92 525.605L1230.25 503.007C1232.24 502.473 1234.17 503.588 1234.71 505.579C1235.24 507.571 1234.13 509.501 1232.13 510.035Z" fill="#007FEF"/>
</g>
<path d="M1058.51 119.291L1038.48 124.658L1043.56 143.633L1063.59 138.266L1058.51 119.291Z" fill="#007FEF"/>
<path d="M1342.28 118.079L1093.96 184.616C1074.51 189.826 1061.06 180.375 1057.82 168.31L1050.7 141.721L1056.56 140.152L1063.68 166.741C1066.07 175.643 1076.1 183.122 1092.39 178.76L1340.71 112.222C1366.01 105.443 1379.26 95.8659 1371.6 67.2855C1368.18 54.518 1368.52 45.0112 1372.55 38.0308C1377.56 29.5339 1386.81 27.0544 1394.31 25.0457L1395.95 24.6064L1433.31 14.5943L1434.88 20.451L1395.88 30.9024C1389.08 32.7227 1381.44 34.6457 1377.87 41.0006C1374.78 46.3472 1374.63 54.6743 1377.54 65.5677C1386.87 100.856 1366.05 111.707 1342.28 118.079Z" fill="#00DBD9"/>
<path d="M1431.33 7.5923L1412.35 12.6768L1417.72 32.7065L1436.69 27.622L1431.33 7.5923Z" fill="#007FEF"/>
<path d="M417.815 159.395L238.25 207.509C236.845 207.886 235.359 207.028 234.983 205.623L231.53 192.738C231.154 191.332 232.011 189.847 233.417 189.471L413.098 141.325C414.504 140.948 415.989 141.806 416.366 143.212L419.818 156.096C420.195 157.502 419.337 158.987 417.815 159.395Z" fill="#00DBD9"/>
<path d="M585.686 78.3868L229.251 173.893C227.846 174.27 226.36 173.412 225.984 172.007L222.531 159.122C222.155 157.717 223.012 156.231 224.418 155.855L580.853 60.3483C582.258 59.9717 583.744 60.8292 584.12 62.2348L587.573 75.1194C587.949 76.525 587.092 78.0102 585.686 78.3868Z" fill="#00DBD9"/>
<path d="M656.142 341.349L299.707 436.856C298.302 437.232 296.817 436.375 296.44 434.969L292.987 422.085C292.611 420.679 293.468 419.194 294.874 418.817L651.309 323.311C652.714 322.934 654.2 323.792 654.576 325.197L658.029 338.082C658.405 339.487 657.548 340.973 656.142 341.349Z" fill="#00DBD9"/>
<path d="M353.568 214.777L247.797 243.118C246.391 243.495 244.906 242.638 244.53 241.232L241.077 228.347C240.701 226.942 241.558 225.457 242.964 225.08L348.735 196.739C350.14 196.362 351.625 197.22 352.002 198.625L355.454 211.51C355.831 212.915 354.973 214.401 353.568 214.777Z" fill="#00DBD9"/>
<path d="M496.591 453.397L317.027 501.512C315.621 501.888 314.136 501.031 313.759 499.625L310.307 486.74C309.93 485.335 310.788 483.85 312.193 483.473L491.875 435.328C493.281 434.951 494.766 435.808 495.142 437.214L498.595 450.099C498.972 451.504 498.114 452.989 496.591 453.397Z" fill="#00DBD9"/>
<path d="M446.545 436.683L309.5 473.405C308.095 473.781 306.609 472.924 306.233 471.518L302.78 458.634C302.404 457.228 303.261 455.743 304.667 455.366L441.712 418.645C443.118 418.268 444.603 419.126 444.98 420.531L448.432 433.416C448.809 434.822 447.951 436.307 446.545 436.683Z" fill="#00DBD9"/>
<path d="M554.522 669.626L374.957 717.741C373.552 718.117 372.066 717.26 371.69 715.854L368.237 702.969C367.861 701.564 368.718 700.079 370.124 699.702L549.805 651.557C551.211 651.18 552.696 652.037 553.073 653.443L556.525 666.328C556.902 667.733 556.044 669.218 554.522 669.626Z" fill="#00DBD9"/>
<path d="M504.487 652.908L367.442 689.629C366.036 690.006 364.551 689.148 364.175 687.743L360.722 674.858C360.345 673.452 361.203 671.967 362.609 671.591L499.654 634.869C501.059 634.493 502.545 635.35 502.921 636.756L506.374 649.64C506.75 651.046 505.893 652.531 504.487 652.908Z" fill="#00DBD9"/>
<path d="M785.683 869.319L440.376 961.844C438.97 962.221 437.485 961.363 437.108 959.958L433.656 947.073C433.279 945.667 434.137 944.182 435.542 943.806L780.849 851.281C782.255 850.904 783.74 851.762 784.117 853.167L787.569 866.052C788.063 867.426 787.206 868.911 785.683 869.319Z" fill="#00DBD9"/>
<path d="M569.921 897.129L432.876 933.85C431.47 934.226 429.985 933.369 429.608 931.963L426.156 919.079C425.779 917.673 426.637 916.188 428.042 915.811L565.088 879.09C566.493 878.714 567.979 879.571 568.355 880.977L571.808 893.861C572.184 895.267 571.327 896.752 569.921 897.129Z" fill="#00DBD9"/>
</g>
</g>
<defs>
<linearGradient id="paint0_linear" x1="208.7" y1="540" x2="1453.56" y2="540" gradientUnits="userSpaceOnUse">
<stop stop-color="#007FEF"/>
<stop offset="1" stop-color="#00DBD9"/>
</linearGradient>
<clipPath id="clip0">
<rect width="1420" height="1080" fill="white"/>
</clipPath>
</defs>
</svg>
